<?xml version="1.0" encoding="UTF-8" standalone="no"?>
<!DOCTYPE svg PUBLIC "-//W3C//DTD SVG 1.1//EN" "http://www.w3.org/Graphics/SVG/1.1/DTD/svg11.dtd">
<svg version="1.1" xmlns="http://www.w3.org/2000/svg" xmlns:xlink="http://www.w3.org/1999/xlink" preserveAspectRatio="xMidYMid meet" viewBox="0 0 150 150" width="150" height="150"><defs><path d="M132.65 25.97C133.2 38.85 116.21 72.52 108.71 85.9C102.99 96.07 99.98 101.45 97.56 105.59C97.66 105.69 97.75 105.84 97.9 105.94C113.35 85.26 145.14 41.03 144.35 25.97C143.81 15.9 135.81 14.62 129.84 13.48C123.92 12.35 113.55 12.74 102.54 16.1C102.86 16.29 105.43 17.79 105.75 17.97C124.01 13.58 132.26 16.74 132.65 25.97C132.65 25.97 132.65 25.97 132.65 25.97Z" id="em47PdUvj"></path><path d="M86.5 21.73C71.15 30.22 67.94 44.63 67.94 44.63C69.45 44.63 81.49 44.63 83 44.63C83 44.63 75.59 36.93 78.65 33.47C81.22 30.61 90.6 36.39 92.23 37.23C89.17 29.33 94.15 21.13 104.12 17.97C103.89 17.82 102.08 16.6 101.85 16.44C101.21 16.59 100.52 16.54 99.88 16.69C94.64 17.97 90.25 19.7 86.5 21.73Z" id="d2IQO1pZio"></path><path d="M76.63 24.59C79.98 19.11 84.82 15.8 92.67 16.3C97.31 16.59 99.48 18.17 101.41 20.2C103.53 22.66 103.92 26.02 104.02 30.66C104.32 43.84 100.12 67.58 91.39 92.46C90.55 94.83 89.86 96.86 89.17 98.63C89.46 98.83 92.47 101.4 92.47 101.4C92.47 101.4 93.21 100.9 99.04 90.98C109.5 74.1 119.87 43.35 119.42 30.71C119.18 24.34 114.93 20.1 108.76 17.38C101.26 14.03 78.65 13.48 73.91 13.48C71.64 13.48 66.9 13.63 66.71 13.63C66.71 13.63 74.21 22.27 70.31 24.84C66.41 27.4 57.72 20.69 57.72 20.69C57.7 22.07 57.54 33.08 57.53 34.46C69.08 34.41 73.42 29.57 76.63 24.59C76.63 24.59 76.63 24.59 76.63 24.59Z" id="c4Wd2JAHK"></path><path d="M59.01 14.07C59.01 14.07 57.53 14.22 55.25 14.42C48.34 14.96 36.45 17.04 32.01 25.53C31.17 27.06 30.62 28.74 30.52 30.71C30.13 42.01 37.34 66.35 46.67 84.81C48.79 89.06 53.08 90.78 53.72 90.93C54.91 91.18 56.14 91.43 57.48 91.62C50.27 72.57 45.63 44.68 45.97 30.71C46.02 28.04 46.52 25.72 47.26 23.8C50.27 17.18 54.61 14.77 59.01 14.07Z" id="a1Biuui0UT"></path><path d="M17.59 26.42C18.09 15.56 27.66 15.31 35.61 15.9C35.61 15.9 28.65 12.15 20.8 13.24C13.15 14.27 6.19 16.3 5.65 26.37C5.15 35.6 20.06 61.26 32.84 78.99C36.55 84.12 39.9 85.95 41.88 86.83C31.76 69.36 17.1 38.11 17.59 26.42Z" id="a2UUqJtHuT"></path><path d="M77.76 120.1C89.21 121.14 98.94 119.56 109.26 131.31C98.54 113.74 85.66 111.37 75.49 111.02C59.89 110.53 56.14 107.22 50.47 103.27C55.85 109.39 60.73 118.53 77.76 120.1Z" id="a5CT87bWXw"></path><path d="M69.37 106.78C79.44 107.57 92.13 106.97 102.15 117.64C89.91 98.68 80.87 96.86 65.47 96.11C52.74 95.42 44.84 91.87 38.97 87.82C44.59 93.79 54.61 105.64 69.37 106.78Z" id="a2cspIE6QU"></path><path d="M75.44 0.01C75.44 0.01 75.44 0.01 75.44 0.01C75.44 0.01 66.21 -0.19 61.72 1.59C57.18 3.36 56.49 6.28 56.14 11.16C56.14 11.16 57.43 4.1 75.34 4.1C93.26 4.1 94.74 11.16 94.74 11.16C94.45 6.23 93.71 3.31 89.17 1.59C84.62 -0.19 78.19 0.32 75.44 0.01Z" id="a543x7Ow3"></path><path d="M56.74 123.41C57.97 121.78 60.78 118.38 60.78 118.38C60.78 118.38 58.61 116.11 57.53 114.87C51.6 119.07 45.63 124.05 41.63 129.14C37.93 133.93 35.81 139.36 37.39 143.26C40.79 151.65 71.4 149.77 71.4 149.77C71.4 149.77 54.42 147.55 51.4 138.32C50.17 134.57 52.54 129.04 56.74 123.41Z" id="d2zBJCxM9A"></path><path d="M98.64 138.32C95.98 146.17 83.39 148.98 79.64 149.62C79.49 149.62 79.54 149.82 79.64 149.87C85.07 150.12 109.55 150.76 112.61 143.3C112.86 142.66 113.01 141.97 113.11 141.28C113.2 138.27 108.61 131.21 98.69 127.76C99.28 131.11 99.43 136 98.64 138.32Z" id="cNBLcfbN6"></path></defs><g><g><g><g><use xlink:href="#em47PdUvj" opacity="1" fill="#002f87" fill-opacity="1"></use><g><use xlink:href="#em47PdUvj" opacity="1" fill-opacity="0" stroke="#000000" stroke-width="1" stroke-opacity="0"></use></g></g><g><use xlink:href="#d2IQO1pZio" opacity="1" fill="#34a348" fill-opacity="1"></use><g><use xlink:href="#d2IQO1pZio" opacity="1" fill-opacity="0" stroke="#000000" stroke-width="1" stroke-opacity="0"></use></g></g><g><use xlink:href="#c4Wd2JAHK" opacity="1" fill="#f2ba1c" fill-opacity="1"></use><g><use xlink:href="#c4Wd2JAHK" opacity="1" fill-opacity="0" stroke="#000000" stroke-width="1" stroke-opacity="0"></use></g></g><g><use xlink:href="#a1Biuui0UT" opacity="1" fill="#34a348" fill-opacity="1"></use><g><use xlink:href="#a1Biuui0UT" opacity="1" fill-opacity="0" stroke="#000000" stroke-width="1" stroke-opacity="0"></use></g></g><g><use xlink:href="#a2UUqJtHuT" opacity="1" fill="#002f87" fill-opacity="1"></use><g><use xlink:href="#a2UUqJtHuT" opacity="1" fill-opacity="0" stroke="#000000" stroke-width="1" stroke-opacity="0"></use></g></g><g><use xlink:href="#a5CT87bWXw" opacity="1" fill="#34a348" fill-opacity="1"></use><g><use xlink:href="#a5CT87bWXw" opacity="1" fill-opacity="0" stroke="#000000" stroke-width="1" stroke-opacity="0"></use></g></g><g><use xlink:href="#a2cspIE6QU" opacity="1" fill="#f2ba1c" fill-opacity="1"></use><g><use xlink:href="#a2cspIE6QU" opacity="1" fill-opacity="0" stroke="#000000" stroke-width="1" stroke-opacity="0"></use></g></g><g><use xlink:href="#a543x7Ow3" opacity="1" fill="#002f87" fill-opacity="1"></use><g><use xlink:href="#a543x7Ow3" opacity="1" fill-opacity="0" stroke="#000000" stroke-width="1" stroke-opacity="0"></use></g></g><g><use xlink:href="#d2zBJCxM9A" opacity="1" fill="#002f87" fill-opacity="1"></use><g><use xlink:href="#d2zBJCxM9A" opacity="1" fill-opacity="0" stroke="#000000" stroke-width="1" stroke-opacity="0"></use></g></g><g><use xlink:href="#cNBLcfbN6" opacity="1" fill="#002f87" fill-opacity="1"></use><g><use xlink:href="#cNBLcfbN6" opacity="1" fill-opacity="0" stroke="#000000" stroke-width="1" stroke-opacity="0"></use></g></g></g></g></g></svg>