<?xml version="1.0" encoding="UTF-8" standalone="no"?>
<!DOCTYPE svg PUBLIC "-//W3C//DTD SVG 1.1//EN" "http://www.w3.org/Graphics/SVG/1.1/DTD/svg11.dtd">
<svg version="1.1" xmlns="http://www.w3.org/2000/svg" xmlns:xlink="http://www.w3.org/1999/xlink" preserveAspectRatio="xMidYMid meet" viewBox="0 0 150 150" width="150" height="150"><defs><path d="M82.91 75.04C81.76 75.26 83.27 74.03 61.31 95.98C63.48 98.15 74.35 109.02 93.9 128.57C105.5 116.97 111.95 110.52 113.24 109.23C116.88 105.59 116.58 100.79 116.56 101.33C116.58 100.6 116.87 99.92 117.36 99.42C119.17 97.61 133.66 83.13 135.47 81.32C135.9 80.89 135.9 80.19 135.47 79.76C132.98 77.27 113.02 57.31 110.52 54.81C110.09 54.38 109.4 54.38 108.97 54.81C89.12 74.66 90.44 73.63 89.24 73.85C87.97 74.09 83.54 74.92 82.91 75.04Z" id="byQbmoAoz"></path><path d="M93.03 129.43C89.78 126.18 63.71 100.11 60.45 96.85C59.97 96.37 59.97 95.6 60.45 95.12C65.49 90.08 69.29 86.26 72.18 83.36C81.49 74.01 81.49 74.01 82.58 73.86C82.59 73.86 82.62 73.85 82.68 73.84C86.48 73.13 88.59 72.73 89.01 72.65C89.09 72.64 89.15 72.63 89.21 72.62C89.24 72.61 89.27 72.61 89.3 72.6C89.71 72.4 91.84 70.26 97.55 64.53C100.15 61.92 103.58 58.48 108.1 53.95C108.54 53.51 109.12 53.27 109.74 53.27C109.74 53.27 109.75 53.27 109.75 53.27C110.37 53.27 110.95 53.51 111.39 53.95C113.88 56.45 133.84 76.4 136.34 78.9C137.24 79.8 137.24 81.28 136.34 82.18C134.53 83.99 120.04 98.48 118.23 100.29C117.95 100.57 117.79 100.95 117.78 101.37C117.78 101.44 117.77 101.5 117.76 101.57C117.79 103.3 117.1 107.1 114.1 110.1C112.17 112.03 96.7 127.5 94.76 129.44C94.53 129.66 94.22 129.79 93.9 129.79C93.57 129.79 93.26 129.66 93.03 129.43ZM93.9 126.84C104.98 115.76 111.14 109.6 112.37 108.37C115.13 105.61 115.34 102.11 115.35 101.5C115.34 101.43 115.34 101.36 115.34 101.3C115.37 100.25 115.78 99.28 116.5 98.56C117.7 97.36 123.71 91.35 134.52 80.54C119.65 65.67 111.4 57.42 109.74 55.76C105.26 60.25 101.86 63.66 99.28 66.26C90.71 74.86 90.71 74.86 89.58 75.03C89.57 75.03 89.54 75.04 89.47 75.05C85.67 75.77 83.56 76.17 83.13 76.24C83.05 76.26 82.98 76.27 82.92 76.28C82.92 76.28 82.89 76.28 82.89 76.28C82.37 76.59 80.17 78.8 73.91 85.09C71.19 87.82 67.66 91.36 63.04 95.98C67.15 100.1 77.44 110.38 93.9 126.84ZM89.24 73.85L89.25 73.85L89.24 73.85Z" id="b18eaMmMeQ"></path><path d="M93.89 136.7C95.61 138.42 98.39 138.42 100.11 136.7C100.29 136.53 101.71 135.1 101.89 134.92C103.61 133.21 103.61 130.42 101.89 128.71C101.97 128.79 102.63 129.45 102.71 129.53C104.43 131.25 107.21 131.25 108.93 129.53C109.1 129.35 110.53 127.93 110.71 127.75C112.42 126.03 112.42 123.25 110.71 121.53C102.84 113.66 77.46 88.29 69.57 80.4C68.12 78.95 66.08 78.25 64.04 78.52C63.95 78.53 63.51 78.59 62.7 78.7C48.17 64.82 40.09 57.11 38.48 55.57C38.06 55.15 37.38 55.15 36.97 55.57C34.72 57.81 16.76 75.77 14.52 78.02C14.1 78.43 14.1 79.11 14.52 79.53C16.53 81.54 32.59 97.6 34.6 99.61C36.25 101.26 37.93 102.4 37.13 104.46C35.52 107.2 35.96 110.69 38.21 112.94C40.36 115.08 57.52 132.25 59.67 134.39C60.38 135.1 61.2 135.69 62.09 136.14C62.07 136.16 61.94 136.29 61.72 136.51C68.61 143.4 72.44 147.23 73.2 148C74.92 149.71 77.7 149.71 79.42 148C79.6 147.82 81.02 146.39 81.2 146.22C82.92 144.5 82.92 141.72 81.2 140C81.52 140.32 84.05 142.85 84.37 143.17C86.08 144.88 88.86 144.88 90.58 143.17C90.76 142.99 92.18 141.56 92.36 141.39C94.08 139.67 94.08 136.89 92.36 135.17C92.67 135.48 93.59 136.4 93.89 136.7Z" id="aHrxr0ZVj"></path><path d="M93.03 137.57C92.55 137.09 92.55 136.32 93.03 135.84C93.51 135.36 94.28 135.36 94.76 135.84C95.36 136.44 96.15 136.77 97 136.77C97.85 136.77 98.64 136.44 99.24 135.84C99.42 135.66 100.85 134.24 101.02 134.06C101.62 133.46 101.95 132.66 101.95 131.82C101.95 130.97 101.62 130.17 101.02 129.57C99.32 127.87 85.67 114.21 83.96 112.51C83.48 112.03 83.48 111.26 83.96 110.78C84.44 110.3 85.21 110.3 85.69 110.78C87.39 112.48 101.05 126.14 102.75 127.84C103.81 128.9 104.4 130.31 104.4 131.82C104.4 133.32 103.81 134.73 102.75 135.79C102.57 135.97 101.15 137.39 100.97 137.57C99.91 138.63 98.5 139.21 97 139.21C95.5 139.21 94.09 138.63 93.03 137.57Z" id="cjNy7ssCG"></path><path d="M83.5 144.03C81.93 142.45 69.33 129.86 67.75 128.28C67.28 127.8 67.28 127.03 67.75 126.55C68.23 126.08 69 126.08 69.48 126.55C71.06 128.13 83.65 140.73 85.23 142.3C85.83 142.9 86.62 143.23 87.47 143.23C88.32 143.23 89.12 142.9 89.72 142.3C89.89 142.12 91.32 140.7 91.5 140.52C92.1 139.92 92.43 139.13 92.43 138.28C92.43 137.43 92.1 136.63 91.5 136.03C89.92 134.46 77.32 121.86 75.75 120.29C75.27 119.81 75.27 119.04 75.75 118.56C76.22 118.08 77 118.08 77.48 118.56C79.05 120.13 91.65 132.73 93.22 134.31C94.29 135.37 94.87 136.78 94.87 138.28C94.87 139.78 94.29 141.19 93.22 142.25C93.05 142.43 91.62 143.85 91.44 144.03C90.38 145.09 88.97 145.67 87.47 145.67C85.97 145.67 84.56 145.09 83.5 144.03Z" id="bYqRpmciC"></path><path d="M72.34 148.86C71.19 147.71 62 138.52 60.86 137.38C60.38 136.9 60.38 136.12 60.86 135.65C61.65 134.85 68.05 128.45 68.85 127.65C69.33 127.17 70.1 127.17 70.58 127.65C71.73 128.8 80.91 137.99 82.06 139.14C84.25 141.33 84.25 144.89 82.06 147.08C81.89 147.26 80.46 148.68 80.28 148.86C79.19 149.95 77.75 150.5 76.31 150.5C74.87 150.5 73.43 149.95 72.34 148.86ZM74.07 147.13C75.31 148.37 77.32 148.37 78.56 147.13C78.73 146.95 80.16 145.53 80.34 145.35C81.57 144.11 81.57 142.1 80.34 140.86C79.63 140.16 76.09 136.62 69.72 130.24L63.45 136.51C69.11 142.17 72.65 145.71 74.07 147.13Z" id="b2iRvk2E9y"></path><path d="M72.34 148.86C71.19 147.71 62 138.52 60.86 137.37C60.65 137.17 60.53 136.9 60.5 136.63C59.89 136.23 59.32 135.77 58.8 135.26C56.66 133.11 39.49 115.95 37.35 113.8C34.73 111.19 34.19 107.15 36.02 103.94C36.31 103.1 35.94 102.59 34.44 101.16C34.21 100.93 33.97 100.71 33.73 100.47C31.73 98.46 15.66 82.4 13.65 80.39C12.76 79.5 12.76 78.04 13.65 77.15C15.9 74.91 33.86 56.95 36.1 54.71C36.99 53.81 38.45 53.81 39.34 54.71C40.93 56.22 48.85 63.79 63.12 77.41C63.58 77.35 63.83 77.32 63.88 77.31C66.28 76.99 68.73 77.83 70.43 79.53C74.55 83.65 107.46 116.56 111.57 120.67C112.63 121.73 113.22 123.14 113.22 124.64C113.22 126.14 112.63 127.55 111.57 128.61C111.39 128.79 109.97 130.22 109.79 130.39C108.73 131.45 107.32 132.04 105.82 132.04C105.33 132.04 104.86 131.98 104.4 131.86C104.39 133.34 103.8 134.74 102.75 135.79C102.57 135.96 101.15 137.39 100.97 137.57C99.32 139.22 96.88 139.62 94.85 138.78C94.73 140.09 94.16 141.31 93.22 142.25C93.05 142.43 91.62 143.85 91.44 144.03C90.38 145.09 88.97 145.67 87.47 145.67C86.02 145.67 84.66 145.13 83.61 144.14C83.41 145.22 82.9 146.25 82.06 147.08C81.89 147.26 80.46 148.68 80.28 148.86C79.19 149.95 77.75 150.5 76.31 150.5C74.87 150.5 73.43 149.95 72.34 148.86ZM74.07 147.13C75.31 148.37 77.32 148.37 78.56 147.13C78.73 146.95 80.16 145.53 80.34 145.35C81.57 144.11 81.57 142.1 80.34 140.86C79.86 140.39 79.86 139.61 80.34 139.14C80.81 138.66 81.59 138.66 82.06 139.14C82.38 139.45 84.91 141.98 85.23 142.3C85.83 142.9 86.62 143.23 87.47 143.23C88.32 143.23 89.12 142.9 89.71 142.3C89.89 142.12 91.32 140.7 91.5 140.52C92.09 139.92 92.42 139.13 92.42 138.28C92.42 137.43 92.09 136.63 91.5 136.03C91.02 135.56 91.02 134.78 91.5 134.31C91.97 133.83 92.75 133.83 93.22 134.31C93.23 134.31 93.23 134.31 93.23 134.31C93.38 134.47 94.6 135.69 94.76 135.84C95.99 137.08 98.01 137.08 99.24 135.84C99.42 135.66 100.85 134.24 101.02 134.06C101.62 133.46 101.95 132.66 101.95 131.82C101.95 130.97 101.62 130.17 101.02 129.57C100.55 129.1 100.55 128.32 101.02 127.84C101.5 127.37 102.28 127.37 102.75 127.84C102.84 127.93 103.49 128.58 103.58 128.67C104.18 129.27 104.97 129.6 105.82 129.6C106.67 129.6 107.46 129.27 108.06 128.67C108.24 128.49 109.67 127.07 109.84 126.89C110.44 126.29 110.77 125.49 110.77 124.64C110.77 123.8 110.44 123 109.84 122.4C105.73 118.29 72.82 85.38 68.71 81.26C67.53 80.09 65.85 79.52 64.2 79.74C64.07 79.75 62.99 79.9 62.86 79.91C62.49 79.96 62.12 79.84 61.86 79.59C60.25 78.05 52.2 70.37 37.72 56.54L15.49 78.77C27.47 90.75 34.13 97.41 35.46 98.74C35.69 98.97 35.91 99.18 36.13 99.39C37.59 100.79 39.25 102.37 38.27 104.9C38.25 104.96 38.22 105.02 38.19 105.08C36.86 107.34 37.22 110.22 39.08 112.07C41.22 114.22 58.39 131.38 60.53 133.53C61.14 134.14 61.85 134.65 62.64 135.05C62.99 135.22 63.24 135.56 63.3 135.95C63.32 136.08 63.32 136.22 63.29 136.36C65.45 138.51 72.99 146.05 74.07 147.13ZM37.63 56.45C37.63 56.45 37.64 56.45 37.64 56.46C37.64 56.46 37.63 56.45 37.63 56.45Z" id="a1YrsHjyB4"></path><path d="M60 137.52C58.68 138.78 58.62 140.86 59.87 142.18C60.19 142.53 62.79 145.27 63.11 145.61C64.36 146.93 66.45 146.99 67.77 145.74C68.98 144.59 78.65 135.44 79.86 134.29C82.13 132.15 82.23 128.57 80.08 126.3C77.93 124.03 74.35 123.94 72.09 126.08C69.67 128.37 61.21 136.38 60 137.52Z" id="a1HOyrp5pG"></path><path d="M52.23 129.31C50.9 130.56 50.85 132.65 52.1 133.97C52.42 134.32 55.01 137.05 55.34 137.4C56.59 138.72 58.68 138.78 60 137.53C60.99 136.59 68.91 129.09 69.89 128.16C72.16 126.01 72.26 122.43 70.11 120.17C67.97 117.9 64.39 117.8 62.12 119.95C60.14 121.82 53.22 128.38 52.23 129.31Z" id="aGC48O7wq"></path><path d="M44.45 121.1C43.13 122.35 43.07 124.44 44.32 125.76C44.65 126.1 47.24 128.84 47.56 129.18C48.82 130.51 50.9 130.56 52.22 129.31C52.94 128.63 58.69 123.19 59.41 122.51C61.68 120.36 61.78 116.78 59.63 114.52C57.49 112.25 53.91 112.15 51.64 114.3C50.2 115.66 45.17 120.42 44.45 121.1Z" id="dn5ppAkeB"></path><path d="M36.68 112.89C35.36 114.14 35.3 116.23 36.55 117.55C36.88 117.89 39.47 120.63 39.79 120.97C41.04 122.3 43.13 122.35 44.45 121.1C44.86 120.71 48.14 117.61 48.55 117.23C50.81 115.08 50.91 111.5 48.76 109.24C46.62 106.97 43.04 106.87 40.77 109.01C39.95 109.79 37.09 112.5 36.68 112.89Z" id="a4dCf2v1M"></path><path d="M62.22 146.45C61.9 146.11 59.31 143.37 58.98 143.02C58.15 142.15 57.71 141 57.75 139.79C57.78 138.59 58.28 137.47 59.16 136.64C60.37 135.49 70.04 126.34 71.25 125.19C74 122.59 78.36 122.71 80.97 125.46C83.57 128.21 83.45 132.58 80.7 135.18C79.49 136.33 69.82 145.48 68.61 146.62C67.74 147.45 66.62 147.86 65.51 147.86C64.31 147.86 63.11 147.39 62.22 146.45ZM72.93 126.97C71.72 128.11 62.05 137.27 60.84 138.41C60.01 139.2 59.97 140.51 60.76 141.34C61.08 141.69 63.67 144.43 64 144.77C64.78 145.6 66.1 145.64 66.93 144.85C68.14 143.7 77.81 134.55 79.02 133.41C80.79 131.73 80.87 128.92 79.19 127.14C78.38 126.28 77.28 125.79 76.1 125.76C76.05 125.76 76.01 125.76 75.97 125.76C74.83 125.76 73.76 126.18 72.93 126.97ZM72.09 126.08L72.09 126.08L72.09 126.08Z" id="k1xnvP8SUH"></path><path d="M54.45 138.24C54.13 137.89 51.53 135.15 51.21 134.81C50.38 133.94 49.94 132.79 49.97 131.58C50.01 130.38 50.51 129.25 51.39 128.43C52.38 127.49 60.29 119.99 61.28 119.06C64.04 116.45 68.4 116.57 71 119.33C73.61 122.08 73.49 126.44 70.73 129.05C69.75 129.98 61.83 137.48 60.84 138.41C59.97 139.24 58.85 139.65 57.73 139.65C56.53 139.65 55.34 139.17 54.45 138.24ZM53.06 130.2C52.66 130.58 52.43 131.1 52.42 131.65C52.4 132.2 52.6 132.73 52.98 133.13C53.31 133.47 55.9 136.21 56.23 136.56C57.01 137.39 58.33 137.42 59.16 136.64C60.15 135.7 68.06 128.21 69.05 127.27C70.83 125.59 70.91 122.78 69.23 121C67.55 119.23 64.74 119.15 62.96 120.83C60.98 122.71 54.05 129.26 53.06 130.2Z" id="h98MfjRiw"></path><path d="M46.68 130.02C46.35 129.68 43.76 126.94 43.44 126.6C42.61 125.72 42.17 124.58 42.2 123.37C42.24 122.16 42.74 121.04 43.61 120.21C44.33 119.53 50.08 114.09 50.8 113.41C52.14 112.15 53.89 111.48 55.72 111.53C57.55 111.58 59.26 112.34 60.52 113.68C61.78 115.01 62.45 116.76 62.4 118.59C62.35 120.43 61.59 122.13 60.25 123.4C59.54 124.08 53.78 129.52 53.07 130.2C52.19 131.02 51.08 131.43 49.96 131.43C48.76 131.43 47.57 130.96 46.68 130.02ZM45.29 121.99C44.89 122.37 44.66 122.88 44.64 123.44C44.63 123.99 44.83 124.52 45.21 124.92C45.54 125.26 48.13 128 48.45 128.34C49.24 129.17 50.55 129.21 51.38 128.43C52.1 127.74 57.85 122.3 58.57 121.62C59.43 120.81 59.92 119.71 59.96 118.52C59.99 117.34 59.56 116.22 58.74 115.36C57.93 114.5 56.83 114.01 55.65 113.97C54.46 113.94 53.34 114.37 52.48 115.18C51.04 116.54 46.01 121.31 45.29 121.99Z" id="a51BUuE2y"></path><path d="M38.9 121.81C38.58 121.47 35.99 118.73 35.66 118.39C34.83 117.51 34.4 116.36 34.43 115.16C34.46 113.95 34.96 112.83 35.84 112C36.25 111.61 39.52 108.51 39.93 108.13C42.69 105.52 47.05 105.64 49.65 108.39C50.91 109.73 51.58 111.47 51.53 113.31C51.48 115.14 50.72 116.85 49.39 118.11C48.98 118.5 45.7 121.6 45.29 121.99C44.42 122.81 43.3 123.22 42.19 123.22C40.99 123.22 39.79 122.75 38.9 121.81ZM37.52 113.78C36.69 114.56 36.65 115.88 37.44 116.71C37.76 117.05 40.36 119.79 40.68 120.13C41.47 120.96 42.78 121 43.61 120.21C44.02 119.83 47.3 116.73 47.71 116.34C48.56 115.53 49.06 114.43 49.09 113.24C49.12 112.06 48.69 110.93 47.88 110.07C46.2 108.3 43.39 108.22 41.61 109.9C40.79 110.68 37.93 113.39 37.52 113.78Z" id="b1GhejVFn4"></path><path d="M85.02 78.12C83.3 76.4 82.34 75.44 82.14 75.24C81.59 75.43 82.59 74.93 68.27 82.49C67.47 82.91 66.8 83.54 66.34 84.32C65.24 86.17 56.42 100.93 55.32 102.78C55.26 102.87 55.22 102.97 55.18 103.07C55.17 103.1 55.17 103.12 55.16 103.15C55.14 103.23 55.12 103.3 55.11 103.38C55.11 103.38 55.11 103.39 55.11 103.39C55.03 104 55.31 104.63 55.87 104.96C58.59 106.59 62.01 106.57 64.68 104.98C67.08 103.56 67.01 103.12 75.42 89.03C75.68 88.59 76.03 88.21 76.44 87.92C76.54 87.84 77.06 87.46 78.01 86.78L85.02 78.12Z" id="f21RiCCXCX"></path><path d="M55.7 106.34C53.94 105.29 53.38 103.64 54.27 102.15C55.37 100.31 64.19 85.54 65.29 83.69C65.87 82.73 66.7 81.94 67.7 81.41C69.01 80.72 79.53 75.17 80.85 74.47C81.73 74.01 82 73.96 85.35 73.34C86.09 73.2 87 73.03 88.12 72.82C88.78 72.69 89.42 73.13 89.55 73.79C89.67 74.46 89.23 75.1 88.57 75.22C87.45 75.43 86.54 75.6 85.79 75.74C82.54 76.34 82.52 76.35 81.99 76.64C80.67 77.33 70.15 82.88 68.84 83.57C68.24 83.89 67.74 84.36 67.39 84.95C66.29 86.79 57.47 101.56 56.37 103.4C56.23 103.64 56.42 103.92 56.95 104.24C59 105.46 64.13 105.55 66.63 101.37C67.4 100.07 73.6 89.7 74.37 88.4C74.72 87.82 75.17 87.32 75.72 86.93C75.88 86.82 77.13 85.91 77.29 85.8C77.84 85.4 78.6 85.52 79 86.07C79.39 86.62 79.27 87.38 78.72 87.78C78.56 87.89 77.31 88.8 77.15 88.91C76.87 89.11 76.64 89.36 76.47 89.65C75.69 90.95 69.5 101.32 68.73 102.62C66.69 106.04 63.19 107.42 60.08 107.42C58.41 107.42 56.86 107.03 55.7 106.34Z" id="a2GAamiLGu"></path><path d="M75 1.72C57.44 1.72 43.2 15.96 43.2 33.52C43.2 51.09 57.44 65.32 75 65.32C92.56 65.32 106.8 51.09 106.8 33.52C106.8 15.96 92.56 1.72 75 1.72Z" id="cp9CCIno"></path><path d="M52.25 26.98C50.07 20.26 48.85 16.52 48.61 15.77C45.2 20.84 43.2 26.95 43.2 33.52C43.2 33.53 43.2 33.54 43.2 33.55C44.41 32.68 47.42 30.48 52.25 26.98Z" id="barqNTC80g"></path><path d="M75 11.03C81.24 6.49 84.71 3.97 85.41 3.47C82.14 2.34 78.64 1.72 75 1.72C71.36 1.72 67.86 2.34 64.59 3.47C65.98 4.48 69.45 7 75 11.03Z" id="bffRLjvtV"></path><path d="M61.22 53.42C54.42 53.18 50.64 53.05 49.88 53.02C53.51 57.69 58.42 61.33 64.08 63.4C63.7 62.07 62.74 58.74 61.22 53.42Z" id="a15ehnoAGo"></path><path d="M85.92 63.4C91.58 61.33 96.49 57.69 100.12 53.02C99.36 53.05 95.59 53.18 88.79 53.42C87.26 58.74 86.31 62.07 85.92 63.4Z" id="b4D299VMKr"></path><path d="M97.68 26.98C103.15 30.95 106.19 33.16 106.8 33.6C106.8 33.6 106.8 33.6 106.8 33.6C106.81 26.97 104.8 20.81 101.34 15.71C100.86 17.21 99.64 20.97 97.68 26.98Z" id="b1vS1Dc1KR"></path><path d="M75 21.1L62.4 30.25L67.21 45.07L82.79 45.07L87.6 30.25L75 21.1Z" id="c12vkiuxBW"></path><path d="M67.21 46.29C66.68 46.29 66.21 45.95 66.05 45.44C65.57 43.96 61.72 32.11 61.24 30.63C61.07 30.13 61.25 29.57 61.68 29.26C62.94 28.35 73.02 21.02 74.28 20.11C74.71 19.8 75.29 19.8 75.72 20.11C76.98 21.02 87.06 28.35 88.32 29.26C88.75 29.58 88.93 30.13 88.77 30.63C88.28 32.11 84.43 43.96 83.95 45.44C83.79 45.95 83.32 46.29 82.79 46.29C79.67 46.29 68.77 46.29 67.21 46.29ZM68.1 43.84L81.9 43.84L86.16 30.72L75 22.61L63.84 30.72L68.1 43.84Z" id="b312yePIOx"></path><path d="M41.98 33.52C41.98 15.32 56.79 0.5 75 0.5C93.21 0.5 108.02 15.32 108.02 33.52C108.02 51.73 93.21 66.54 75 66.54C56.79 66.54 41.98 51.73 41.98 33.52ZM44.42 33.52C44.42 50.38 58.14 64.1 75 64.1C91.86 64.1 105.58 50.38 105.58 33.52C105.58 16.66 91.86 2.95 75 2.95C58.14 2.95 44.42 16.66 44.42 33.52Z" id="a14R24jrAW"></path><path d="M105.91 34.46C105.02 33.81 97.86 28.61 96.97 27.96C96.54 27.65 96.36 27.1 96.52 26.6C96.88 25.5 99.73 16.74 100.08 15.64C100.29 15 100.98 14.65 101.62 14.86C102.26 15.07 102.62 15.75 102.41 16.4C102.19 17.07 101.09 20.44 99.12 26.51C104.06 30.1 106.8 32.09 107.35 32.49C107.89 32.88 108.02 33.65 107.62 34.19C107.38 34.52 107.01 34.7 106.63 34.7C106.38 34.7 106.13 34.62 105.91 34.46Z" id="c1JS3i5F2"></path><path d="M86.44 30.63C86.23 29.99 86.58 29.3 87.22 29.09C88.23 28.76 96.3 26.14 97.31 25.81C97.95 25.61 98.64 25.96 98.85 26.6C99.05 27.24 98.7 27.93 98.06 28.14C97.05 28.47 88.99 31.09 87.98 31.41C87.85 31.46 87.73 31.47 87.6 31.47C87.09 31.47 86.61 31.15 86.44 30.63Z" id="b4YFx89CCL"></path><path d="M85.64 64.39C84.99 64.2 84.62 63.53 84.8 62.88C85.08 61.9 87.33 54.06 87.61 53.08C87.76 52.57 88.21 52.22 88.74 52.2C89.85 52.16 98.7 51.85 99.8 51.81C100.47 51.79 101.04 52.31 101.07 52.99C101.09 53.66 100.56 54.23 99.89 54.25C99.21 54.28 95.82 54.4 89.72 54.61C88.18 59.97 87.32 62.95 87.15 63.55C87 64.09 86.51 64.44 85.98 64.44C85.86 64.44 85.75 64.42 85.64 64.39Z" id="h6TNAor8b"></path><path d="M87.79 54.13C87.19 53.3 82.4 46.61 81.8 45.78C81.4 45.23 81.53 44.47 82.08 44.07C82.62 43.68 83.39 43.8 83.78 44.35C84.38 45.19 89.18 51.87 89.78 52.7C90.17 53.25 90.05 54.02 89.5 54.41C89.28 54.57 89.03 54.64 88.79 54.64C88.41 54.64 88.03 54.46 87.79 54.13Z" id="a7nPA2n4uc"></path><path d="M61.17 54.64C60.06 54.6 51.15 54.29 50.03 54.25C49.36 54.23 48.83 53.66 48.85 52.99C48.88 52.31 49.44 51.77 50.12 51.81C51.23 51.85 60.14 52.16 61.26 52.2C61.93 52.22 62.46 52.79 62.44 53.46C62.41 54.12 61.87 54.64 61.22 54.64C61.2 54.64 61.19 54.64 61.17 54.64Z" id="c1jTo6eHKE"></path><path d="M62.6 62.68C62.35 61.79 60.3 54.65 60.04 53.76C59.94 53.4 60.01 53.01 60.22 52.71C60.82 51.87 65.62 45.19 66.22 44.35C66.61 43.81 67.38 43.68 67.92 44.07C68.47 44.47 68.6 45.23 68.2 45.78C67.83 46.3 65.94 48.93 62.55 53.65C63.99 58.67 64.79 61.45 64.95 62.01C65.14 62.66 64.76 63.33 64.11 63.52C64 63.55 63.89 63.57 63.78 63.57C63.24 63.57 62.75 63.22 62.6 62.68Z" id="a2FVbP3Ji"></path><path d="M42.46 34.09C42.07 33.54 42.19 32.78 42.73 32.38C43.27 31.99 45.97 30.03 50.82 26.51C48.85 20.47 47.76 17.11 47.54 16.44C47.33 15.8 47.69 15.11 48.33 14.9C48.97 14.69 49.66 15.04 49.87 15.68C50.22 16.78 53.06 25.51 53.41 26.6C53.58 27.1 53.4 27.65 52.97 27.97C52.09 28.6 45.05 33.72 44.17 34.36C43.95 34.52 43.7 34.59 43.45 34.59C43.07 34.59 42.7 34.42 42.46 34.09Z" id="acRVE0mqI"></path><path d="M62.02 31.41C61.01 31.09 52.89 28.47 51.88 28.14C51.23 27.93 50.88 27.24 51.09 26.6C51.3 25.96 51.98 25.61 52.63 25.81C53.64 26.14 61.76 28.76 62.77 29.09C63.42 29.3 63.77 29.98 63.56 30.63C63.39 31.14 62.91 31.47 62.4 31.47C62.27 31.47 62.15 31.46 62.02 31.41Z" id="a19M7C6VH7"></path><path d="M74.28 12.02C73.26 11.27 65.07 5.32 64.05 4.58C63.5 4.18 63.38 3.42 63.78 2.87C64.17 2.33 64.94 2.21 65.48 2.6C66.12 3.06 69.29 5.37 75 9.52C80.7 5.38 83.86 3.08 84.49 2.62C85.04 2.22 85.8 2.34 86.2 2.89C86.6 3.43 86.48 4.2 85.93 4.6C84.91 5.34 76.74 11.27 75.72 12.02C75.5 12.17 75.25 12.25 75 12.25C74.75 12.25 74.5 12.17 74.28 12.02Z" id="blX1zXgX3"></path><path d="M73.78 21.1C73.78 20.09 73.78 12.03 73.78 11.03C73.78 10.35 74.33 9.81 75 9.81C75.67 9.81 76.22 10.35 76.22 11.03C76.22 12.03 76.22 20.09 76.22 21.1C76.22 21.77 75.67 22.32 75 22.32C74.33 22.32 73.78 21.77 73.78 21.1Z" id="c2pT2iJ5Qt"></path></defs><g><g><g><g><use xlink:href="#byQbmoAoz" opacity="1" fill="#f9cfcf" fill-opacity="1"></use><g><use xlink:href="#byQbmoAoz" opacity="1" fill-opacity="0" stroke="#000000" stroke-width="1" stroke-opacity="0"></use></g></g><g><use xlink:href="#b18eaMmMeQ" opacity="1" fill="#3762cc" fill-opacity="1"></use><g><use xlink:href="#b18eaMmMeQ" opacity="1" fill-opacity="0" stroke="#000000" stroke-width="1" stroke-opacity="0"></use></g></g><g><use xlink:href="#aHrxr0ZVj" opacity="1" fill="#f9cfcf" fill-opacity="1"></use><g><use xlink:href="#aHrxr0ZVj" opacity="1" fill-opacity="0" stroke="#000000" stroke-width="1" stroke-opacity="0"></use></g></g><g><use xlink:href="#cjNy7ssCG" opacity="1" fill="#3762cc" fill-opacity="1"></use><g><use xlink:href="#cjNy7ssCG" opacity="1" fill-opacity="0" stroke="#000000" stroke-width="1" stroke-opacity="0"></use></g></g><g><use xlink:href="#bYqRpmciC" opacity="1" fill="#3762cc" fill-opacity="1"></use><g><use xlink:href="#bYqRpmciC" opacity="1" fill-opacity="0" stroke="#000000" stroke-width="1" stroke-opacity="0"></use></g></g><g><use xlink:href="#b2iRvk2E9y" opacity="1" fill="#3762cc" fill-opacity="1"></use><g><use xlink:href="#b2iRvk2E9y" opacity="1" fill-opacity="0" stroke="#000000" stroke-width="1" stroke-opacity="0"></use></g></g><g><use xlink:href="#a1YrsHjyB4" opacity="1" fill="#3762cc" fill-opacity="1"></use><g><use xlink:href="#a1YrsHjyB4" opacity="1" fill-opacity="0" stroke="#000000" stroke-width="1" stroke-opacity="0"></use></g></g><g><use xlink:href="#a1HOyrp5pG" opacity="1" fill="#f9cfcf" fill-opacity="1"></use><g><use xlink:href="#a1HOyrp5pG" opacity="1" fill-opacity="0" stroke="#000000" stroke-width="1" stroke-opacity="0"></use></g></g><g><use xlink:href="#aGC48O7wq" opacity="1" fill="#f9cfcf" fill-opacity="1"></use><g><use xlink:href="#aGC48O7wq" opacity="1" fill-opacity="0" stroke="#000000" stroke-width="1" stroke-opacity="0"></use></g></g><g><use xlink:href="#dn5ppAkeB" opacity="1" fill="#f9cfcf" fill-opacity="1"></use><g><use xlink:href="#dn5ppAkeB" opacity="1" fill-opacity="0" stroke="#000000" stroke-width="1" stroke-opacity="0"></use></g></g><g><use xlink:href="#a4dCf2v1M" opacity="1" fill="#f9cfcf" fill-opacity="1"></use><g><use xlink:href="#a4dCf2v1M" opacity="1" fill-opacity="0" stroke="#000000" stroke-width="1" stroke-opacity="0"></use></g></g><g><use xlink:href="#k1xnvP8SUH" opacity="1" fill="#3762cc" fill-opacity="1"></use><g><use xlink:href="#k1xnvP8SUH" opacity="1" fill-opacity="0" stroke="#000000" stroke-width="1" stroke-opacity="0"></use></g></g><g><use xlink:href="#h98MfjRiw" opacity="1" fill="#3762cc" fill-opacity="1"></use><g><use xlink:href="#h98MfjRiw" opacity="1" fill-opacity="0" stroke="#000000" stroke-width="1" stroke-opacity="0"></use></g></g><g><use xlink:href="#a51BUuE2y" opacity="1" fill="#3762cc" fill-opacity="1"></use><g><use xlink:href="#a51BUuE2y" opacity="1" fill-opacity="0" stroke="#000000" stroke-width="1" stroke-opacity="0"></use></g></g><g><use xlink:href="#b1GhejVFn4" opacity="1" fill="#3762cc" fill-opacity="1"></use><g><use xlink:href="#b1GhejVFn4" opacity="1" fill-opacity="0" stroke="#000000" stroke-width="1" stroke-opacity="0"></use></g></g><g><use xlink:href="#f21RiCCXCX" opacity="1" fill="#f9cfcf" fill-opacity="1"></use><g><use xlink:href="#f21RiCCXCX" opacity="1" fill-opacity="0" stroke="#000000" stroke-width="1" stroke-opacity="0"></use></g></g><g><use xlink:href="#a2GAamiLGu" opacity="1" fill="#3762cc" fill-opacity="1"></use><g><use xlink:href="#a2GAamiLGu" opacity="1" fill-opacity="0" stroke="#000000" stroke-width="1" stroke-opacity="0"></use></g></g><g><use xlink:href="#cp9CCIno" opacity="1" fill="#e0ebfc" fill-opacity="1"></use><g><use xlink:href="#cp9CCIno" opacity="1" fill-opacity="0" stroke="#000000" stroke-width="1" stroke-opacity="0"></use></g></g><g><use xlink:href="#barqNTC80g" opacity="1" fill="#4671c6" fill-opacity="1"></use><g><use xlink:href="#barqNTC80g" opacity="1" fill-opacity="0" stroke="#000000" stroke-width="1" stroke-opacity="0"></use></g></g><g><use xlink:href="#bffRLjvtV" opacity="1" fill="#4671c6" fill-opacity="1"></use><g><use xlink:href="#bffRLjvtV" opacity="1" fill-opacity="0" stroke="#000000" stroke-width="1" stroke-opacity="0"></use></g></g><g><use xlink:href="#a15ehnoAGo" opacity="1" fill="#4671c6" fill-opacity="1"></use><g><use xlink:href="#a15ehnoAGo" opacity="1" fill-opacity="0" stroke="#000000" stroke-width="1" stroke-opacity="0"></use></g></g><g><use xlink:href="#b4D299VMKr" opacity="1" fill="#4671c6" fill-opacity="1"></use><g><use xlink:href="#b4D299VMKr" opacity="1" fill-opacity="0" stroke="#000000" stroke-width="1" stroke-opacity="0"></use></g></g><g><use xlink:href="#b1vS1Dc1KR" opacity="1" fill="#4671c6" fill-opacity="1"></use><g><use xlink:href="#b1vS1Dc1KR" opacity="1" fill-opacity="0" stroke="#000000" stroke-width="1" stroke-opacity="0"></use></g></g><g><use xlink:href="#c12vkiuxBW" opacity="1" fill="#4671c6" fill-opacity="1"></use><g><use xlink:href="#c12vkiuxBW" opacity="1" fill-opacity="0" stroke="#000000" stroke-width="1" stroke-opacity="0"></use></g></g><g><use xlink:href="#b312yePIOx" opacity="1" fill="#3762cc" fill-opacity="1"></use><g><use xlink:href="#b312yePIOx" opacity="1" fill-opacity="0" stroke="#000000" stroke-width="1" stroke-opacity="0"></use></g></g><g><use xlink:href="#a14R24jrAW" opacity="1" fill="#3762cc" fill-opacity="1"></use><g><use xlink:href="#a14R24jrAW" opacity="1" fill-opacity="0" stroke="#000000" stroke-width="1" stroke-opacity="0"></use></g></g><g><use xlink:href="#c1JS3i5F2" opacity="1" fill="#3762cc" fill-opacity="1"></use><g><use xlink:href="#c1JS3i5F2" opacity="1" fill-opacity="0" stroke="#000000" stroke-width="1" stroke-opacity="0"></use></g></g><g><use xlink:href="#b4YFx89CCL" opacity="1" fill="#3762cc" fill-opacity="1"></use><g><use xlink:href="#b4YFx89CCL" opacity="1" fill-opacity="0" stroke="#000000" stroke-width="1" stroke-opacity="0"></use></g></g><g><use xlink:href="#h6TNAor8b" opacity="1" fill="#3762cc" fill-opacity="1"></use><g><use xlink:href="#h6TNAor8b" opacity="1" fill-opacity="0" stroke="#000000" stroke-width="1" stroke-opacity="0"></use></g></g><g><use xlink:href="#a7nPA2n4uc" opacity="1" fill="#3762cc" fill-opacity="1"></use><g><use xlink:href="#a7nPA2n4uc" opacity="1" fill-opacity="0" stroke="#000000" stroke-width="1" stroke-opacity="0"></use></g></g><g><use xlink:href="#c1jTo6eHKE" opacity="1" fill="#3762cc" fill-opacity="1"></use><g><use xlink:href="#c1jTo6eHKE" opacity="1" fill-opacity="0" stroke="#000000" stroke-width="1" stroke-opacity="0"></use></g></g><g><use xlink:href="#a2FVbP3Ji" opacity="1" fill="#3762cc" fill-opacity="1"></use><g><use xlink:href="#a2FVbP3Ji" opacity="1" fill-opacity="0" stroke="#000000" stroke-width="1" stroke-opacity="0"></use></g></g><g><use xlink:href="#acRVE0mqI" opacity="1" fill="#3762cc" fill-opacity="1"></use><g><use xlink:href="#acRVE0mqI" opacity="1" fill-opacity="0" stroke="#000000" stroke-width="1" stroke-opacity="0"></use></g></g><g><use xlink:href="#a19M7C6VH7" opacity="1" fill="#3762cc" fill-opacity="1"></use><g><use xlink:href="#a19M7C6VH7" opacity="1" fill-opacity="0" stroke="#000000" stroke-width="1" stroke-opacity="0"></use></g></g><g><use xlink:href="#blX1zXgX3" opacity="1" fill="#3762cc" fill-opacity="1"></use><g><use xlink:href="#blX1zXgX3" opacity="1" fill-opacity="0" stroke="#000000" stroke-width="1" stroke-opacity="0"></use></g></g><g><use xlink:href="#c2pT2iJ5Qt" opacity="1" fill="#3762cc" fill-opacity="1"></use><g><use xlink:href="#c2pT2iJ5Qt" opacity="1" fill-opacity="0" stroke="#000000" stroke-width="1" stroke-opacity="0"></use></g></g></g></g></g></svg>