<?xml version="1.0" encoding="UTF-8" standalone="no"?>
<!DOCTYPE svg PUBLIC "-//W3C//DTD SVG 1.1//EN" "http://www.w3.org/Graphics/SVG/1.1/DTD/svg11.dtd">
<svg version="1.1" xmlns="http://www.w3.org/2000/svg" xmlns:xlink="http://www.w3.org/1999/xlink" preserveAspectRatio="xMidYMid meet" viewBox="0 0 150 150" width="150" height="150"><defs><path d="M134.31 0.38L15.98 0.38L75.15 150.38L134.31 0.38Z" id="awuG7Unj2"></path><path d="M75.15 139.28L128.32 4.46L21.98 4.46L75.15 139.28Z" id="g16tLT3iQe"></path><path d="M97.44 75L75.16 36.41L52.86 75L97.44 75Z" id="a9jaOFEKE"></path><path d="M110.32 9.19L92.89 9.19L92.89 36.75L96.9 36.75L96.9 23.58L106.7 23.58L106.7 19.82L96.9 19.82L96.9 12.93L110.32 12.93L110.32 9.19Z" id="a9QkDeb1G"></path><path d="M89.03 9.19L85.11 9.19L74.78 22.06L64.65 9.19L60.64 9.19L60.64 36.75L64.65 36.75L64.65 15.53L74.78 27.85L84.97 15.14L84.97 36.75L89.03 36.75L89.03 9.19Z" id="dBM5Tjeu"></path><path d="M57.43 9.19L39.97 9.19L39.97 36.75L44.01 36.75L44.01 23.58L53.81 23.58L53.81 19.82L44.01 19.82L44.01 12.93L57.43 12.93L57.43 9.19Z" id="dUbXVZ8JN"></path></defs><g><g><g><g><use xlink:href="#awuG7Unj2" opacity="1" fill="#ed3237" fill-opacity="1"></use><g><use xlink:href="#awuG7Unj2" opacity="1" fill-opacity="0" stroke="#000000" stroke-width="1" stroke-opacity="0"></use></g></g><g><use xlink:href="#g16tLT3iQe" opacity="1" fill="#fefefe" fill-opacity="1"></use><g><use xlink:href="#g16tLT3iQe" opacity="1" fill-opacity="0" stroke="#000000" stroke-width="1" stroke-opacity="0"></use></g></g><g><use xlink:href="#a9jaOFEKE" opacity="1" fill="#ed3237" fill-opacity="1"></use><g><use xlink:href="#a9jaOFEKE" opacity="1" fill-opacity="0" stroke="#000000" stroke-width="1" stroke-opacity="0"></use></g></g><g><use xlink:href="#a9QkDeb1G" opacity="1" fill="#ed3237" fill-opacity="1"></use><g><use xlink:href="#a9QkDeb1G" opacity="1" fill-opacity="0" stroke="#000000" stroke-width="1" stroke-opacity="0"></use></g></g><g><use xlink:href="#dBM5Tjeu" opacity="1" fill="#ed3237" fill-opacity="1"></use><g><use xlink:href="#dBM5Tjeu" opacity="1" fill-opacity="0" stroke="#000000" stroke-width="1" stroke-opacity="0"></use></g></g><g><use xlink:href="#dUbXVZ8JN" opacity="1" fill="#ed3237" fill-opacity="1"></use><g><use xlink:href="#dUbXVZ8JN" opacity="1" fill-opacity="0" stroke="#000000" stroke-width="1" stroke-opacity="0"></use></g></g></g></g></g></svg>