<?xml version="1.0" encoding="UTF-8" standalone="no"?>
<!DOCTYPE svg PUBLIC "-//W3C//DTD SVG 1.1//EN" "http://www.w3.org/Graphics/SVG/1.1/DTD/svg11.dtd">
<svg version="1.1" xmlns="http://www.w3.org/2000/svg" xmlns:xlink="http://www.w3.org/1999/xlink" preserveAspectRatio="xMidYMid meet" viewBox="0 0 150 150" width="150" height="150"><defs><path d="M75 14.3C60.93 14.3 49.52 25.7 49.52 39.77C49.52 53.85 60.93 65.25 75 65.25C89.07 65.25 100.48 53.85 100.48 39.77C100.48 25.7 89.07 14.3 75 14.3Z" id="a6alvqb9kf"></path><radialGradient id="gradientcycgjB6X4" gradientUnits="userSpaceOnUse" cx="77.49" cy="36.33" dx="75" dy="114.49" r="78.2"><stop style="stop-color: #6b6a69;stop-opacity: 1" offset="0%"></stop><stop style="stop-color: #6b6a69;stop-opacity: 1" offset="19%"></stop><stop style="stop-color: #626160;stop-opacity: 1" offset="22%"></stop><stop style="stop-color: #494949;stop-opacity: 1" offset="26%"></stop><stop style="stop-color: #212123;stop-opacity: 1" offset="32%"></stop><stop style="stop-color: #121214;stop-opacity: 1" offset="33%"></stop></radialGradient><path d="M85.15 150.5C79.34 142.03 75.84 132.19 75 121.96C74.16 132.19 70.66 142.03 64.85 150.5C68.91 150.5 81.09 150.5 85.15 150.5Z" id="abDPAAWuf"></path><linearGradient id="gradientdgxylUZha" gradientUnits="userSpaceOnUse" x1="75" y1="150.5" x2="75" y2="121.96"><stop style="stop-color: #b8bbbe;stop-opacity: 1" offset="0%"></stop><stop style="stop-color: #898a8d;stop-opacity: 1" offset="23%"></stop><stop style="stop-color: #5b5b5d;stop-opacity: 1" offset="48%"></stop><stop style="stop-color: #49494b;stop-opacity: 1" offset="60%"></stop><stop style="stop-color: #4c4c4e;stop-opacity: 1" offset="69%"></stop><stop style="stop-color: #565658;stop-opacity: 1" offset="76%"></stop><stop style="stop-color: #666769;stop-opacity: 1" offset="83%"></stop><stop style="stop-color: #7d7e81;stop-opacity: 1" offset="89%"></stop><stop style="stop-color: #9a9d9f;stop-opacity: 1" offset="95%"></stop><stop style="stop-color: #b8bbbe;stop-opacity: 1" offset="100%"></stop></linearGradient><path d="M82.85 150.5C83.08 150.5 84.92 150.5 85.15 150.5C79.34 142.03 75.84 132.19 75 121.96C75.57 131.34 76.92 141.12 82.85 150.5Z" id="hb0x1BkKfJ"></path><linearGradient id="gradienta6ovHqq5X" gradientUnits="userSpaceOnUse" x1="80.17" y1="121.96" x2="80.17" y2="150.69"><stop style="stop-color: #49494b;stop-opacity: 1" offset="30%"></stop><stop style="stop-color: #c1c2c4;stop-opacity: 1" offset="70%"></stop><stop style="stop-color: #c1c2c4;stop-opacity: 1" offset="75%"></stop><stop style="stop-color: #49494b;stop-opacity: 1" offset="100%"></stop></linearGradient><path d="M67.15 150.5C66.92 150.5 65.08 150.5 64.85 150.5C70.66 142.03 74.16 132.19 75 121.96C74.43 131.34 73.08 141.12 67.15 150.5Z" id="a4U0P2gfWX"></path><linearGradient id="gradientbsfHYf4w4" gradientUnits="userSpaceOnUse" x1="71.17" y1="121.96" x2="71.17" y2="150.69"><stop style="stop-color: #49494b;stop-opacity: 1" offset="30%"></stop><stop style="stop-color: #c1c2c4;stop-opacity: 1" offset="70%"></stop><stop style="stop-color: #c1c2c4;stop-opacity: 1" offset="75%"></stop><stop style="stop-color: #49494b;stop-opacity: 1" offset="100%"></stop></linearGradient><path d="M74.81 112.95C74.83 112.95 74.98 112.95 75 112.95C76.15 95.71 85.73 76.56 90.71 66.79C88.41 67.93 77.49 74.64 74.81 91.69C72.51 74.64 61.4 68.7 59.1 66.79C64.08 76.75 73.66 95.52 74.81 112.95Z" id="a1Klrr4lW8"></path><linearGradient id="gradientb2Z93noSsx" gradientUnits="userSpaceOnUse" x1="75" y1="65.64" x2="75" y2="121.77"><stop style="stop-color: #c1c2c4;stop-opacity: 1" offset="0%"></stop><stop style="stop-color: #b8b9bb;stop-opacity: 1" offset="7.000000000000001%"></stop><stop style="stop-color: #a0a1a3;stop-opacity: 1" offset="18%"></stop><stop style="stop-color: #79797b;stop-opacity: 1" offset="31%"></stop><stop style="stop-color: #49494b;stop-opacity: 1" offset="45%"></stop><stop style="stop-color: #c1c2c4;stop-opacity: 1" offset="100%"></stop></linearGradient><path d="M90.71 66.79C85.73 76.75 76.15 95.52 75 112.95C75 91.88 84.39 76.56 90.71 66.79Z" id="bPtoxwfp3"></path><linearGradient id="gradientfX2C0BYwW" gradientUnits="userSpaceOnUse" x1="82.66" y1="113.15" x2="82.66" y2="66.79"><stop style="stop-color: #49494b;stop-opacity: 1" offset="0%"></stop><stop style="stop-color: #595958;stop-opacity: 1" offset="0%"></stop><stop style="stop-color: #c1c2c4;stop-opacity: 1" offset="45%"></stop><stop style="stop-color: #c1c2c4;stop-opacity: 1" offset="60%"></stop><stop style="stop-color: #49494b;stop-opacity: 1" offset="80%"></stop></linearGradient><path d="M59.29 66.79C64.27 76.75 73.85 95.52 75 112.95C75 91.88 65.61 76.56 59.29 66.79Z" id="bVu8ppl7f"></path><linearGradient id="gradientcg92MMDQs" gradientUnits="userSpaceOnUse" x1="67.15" y1="113.15" x2="67.15" y2="66.79"><stop style="stop-color: #49494b;stop-opacity: 1" offset="30%"></stop><stop style="stop-color: #c1c2c4;stop-opacity: 1" offset="45%"></stop><stop style="stop-color: #c1c2c4;stop-opacity: 1" offset="60%"></stop><stop style="stop-color: #595958;stop-opacity: 1" offset="100%"></stop><stop style="stop-color: #49494b;stop-opacity: 1" offset="100%"></stop></linearGradient><path d="M93.2 150.5C85.33 140.97 81.12 128.95 81.32 116.59C81.32 99.74 91.86 78.28 96.84 68.89C101.82 59.51 106.8 50.31 106.8 39.77C106.8 22.21 92.56 7.97 75 7.97C57.44 7.97 43.2 22.21 43.2 39.77C43.2 50.31 48.56 58.93 53.16 68.89C57.76 78.85 68.68 99.54 68.68 116.59C68.88 128.95 64.67 140.97 56.8 150.5C55.82 150.5 48.01 150.5 47.03 150.5C57.18 139.77 61.21 129.43 61.21 116.59C61.21 98.59 45.69 70.62 45.5 70.23C40.9 61.42 35.73 51.27 35.73 39.77C35.73 18.08 53.31 0.5 75 0.5C96.69 0.5 114.27 18.08 114.27 39.77C114.27 39.77 114.27 39.77 114.27 39.77C114.27 51.27 109.1 60.85 104.5 70.23C104.12 70.81 88.79 98.97 88.79 116.59C88.79 129.62 92.82 139.58 102.97 150.5C101.01 150.5 95.15 150.5 93.2 150.5Z" id="e20gOnz0RN"></path><linearGradient id="gradientd3UVUi5uWS" gradientUnits="userSpaceOnUse" x1="75" y1="150.5" x2="75" y2="0.5"><stop style="stop-color: #3a3b40;stop-opacity: 1" offset="0%"></stop><stop style="stop-color: #3e3f44;stop-opacity: 1" offset="7.000000000000001%"></stop><stop style="stop-color: #4b4c50;stop-opacity: 1" offset="14.000000000000002%"></stop><stop style="stop-color: #5f6065;stop-opacity: 1" offset="21%"></stop><stop style="stop-color: #7c7d81;stop-opacity: 1" offset="28.000000000000004%"></stop><stop style="stop-color: #a1a2a5;stop-opacity: 1" offset="35%"></stop><stop style="stop-color: #c1c2c4;stop-opacity: 1" offset="40%"></stop><stop style="stop-color: #919295;stop-opacity: 1" offset="46%"></stop><stop style="stop-color: #6b6c70;stop-opacity: 1" offset="51%"></stop><stop style="stop-color: #505156;stop-opacity: 1" offset="56.00000000000001%"></stop><stop style="stop-color: #404146;stop-opacity: 1" offset="60%"></stop><stop style="stop-color: #3a3b40;stop-opacity: 1" offset="63%"></stop><stop style="stop-color: #c1c2c4;stop-opacity: 1" offset="90%"></stop><stop style="stop-color: #c1c2c4;stop-opacity: 1" offset="100%"></stop></linearGradient><path d="M110.44 39.77C111.88 20.15 97.14 3.07 77.52 1.63C57.89 0.18 40.81 14.93 39.37 34.55C39.24 36.29 39.24 38.04 39.37 39.77C39.37 50.89 44.54 60.85 49.14 69.66C52.01 75.02 65.42 98.39 65.42 116.59C65.42 130 60.82 139.58 51.82 150.5C52.32 150.5 56.3 150.5 56.8 150.5C64.67 140.97 68.88 128.95 68.68 116.59C68.68 99.74 58.14 78.28 53.16 68.89C48.18 59.51 43.2 50.31 43.2 39.77C43.2 22.21 57.44 7.97 75 7.97C92.56 7.97 106.8 22.21 106.8 39.77C106.8 39.77 106.8 39.77 106.8 39.77C106.8 50.31 101.44 58.93 96.84 68.89C92.24 78.85 81.32 99.54 81.32 116.59C81.12 128.95 85.33 140.97 93.2 150.5C93.7 150.5 97.68 150.5 98.18 150.5C89.18 140.35 84.58 129.43 84.58 116.59C84.58 99.16 97.99 74.45 100.67 69.66C105.27 60.66 110.44 50.89 110.44 39.77Z" id="g3sXb8bTBl"></path><linearGradient id="gradientb4zurteZ2x" gradientUnits="userSpaceOnUse" x1="75" y1="150.5" x2="75" y2="4.33"><stop style="stop-color: #49494b;stop-opacity: 1" offset="0%"></stop><stop style="stop-color: #c1c2c4;stop-opacity: 1" offset="50%"></stop><stop style="stop-color: #c1c2c4;stop-opacity: 1" offset="51%"></stop><stop style="stop-color: #c1c2c4;stop-opacity: 1" offset="55.00000000000001%"></stop><stop style="stop-color: #49494b;stop-opacity: 1" offset="75%"></stop><stop style="stop-color: #7f8082;stop-opacity: 1" offset="85%"></stop><stop style="stop-color: #afb0b2;stop-opacity: 1" offset="95%"></stop><stop style="stop-color: #c1c2c4;stop-opacity: 1" offset="100%"></stop></linearGradient><path d="M81.9 64.1C81.67 64.33 81.54 64.46 81.51 64.49C77.3 65.58 72.89 65.58 68.68 64.49C68.65 64.46 68.53 64.33 68.3 64.1C66.57 59.05 65.61 56.24 65.42 55.67C65.32 55.5 65.32 55.28 65.42 55.1C65.66 54.78 66.88 53.18 69.06 50.31L80.94 50.31C83.01 53.18 84.16 54.78 84.39 55.1C84.55 55.24 84.63 55.46 84.58 55.67C84.22 56.8 83.33 59.61 81.9 64.1ZM92.43 35.56L86.88 37.48L86.49 37.86C84.42 44.07 83.28 47.51 83.05 48.2C82.94 48.38 82.94 48.6 83.05 48.78C83.29 49.11 84.5 50.77 86.69 53.76C92.55 53.76 95.8 53.76 96.45 53.76C98.83 50.09 100.22 45.86 100.48 41.5C100.53 41.29 100.45 41.06 100.29 40.92C99.81 40.58 97.45 38.85 93.2 35.75L92.43 35.56ZM76.53 28.47L85.34 34.79L85.92 34.79L91.67 32.88L92.05 32.49C93.66 27.55 94.55 24.81 94.73 24.26C94.78 24.04 94.71 23.82 94.54 23.68C91.8 20.28 88.24 17.65 84.19 16.02C84.16 16.02 83.97 16.02 83.62 16.02C79.37 19.12 77.01 20.85 76.53 21.19C76.36 21.33 76.29 21.55 76.34 21.77C76.34 22.36 76.34 27.11 76.34 27.71C76.29 27.92 76.36 28.14 76.53 28.28C76.53 28.31 76.53 28.37 76.53 28.47ZM64.46 34.98C69.75 31.19 72.69 29.08 73.28 28.66C73.44 28.52 73.52 28.3 73.47 28.09C73.47 27.46 73.47 22.4 73.47 21.77C73.52 21.55 73.44 21.33 73.28 21.19C72.82 20.86 70.52 19.2 66.38 16.21C66.03 16.21 65.84 16.21 65.81 16.21C61.78 17.78 58.22 20.35 55.46 23.68C55.29 23.82 55.22 24.04 55.27 24.26C55.45 24.82 56.34 27.63 57.95 32.69L58.33 33.07L63.89 34.98L64.46 34.98ZM66.95 48.39L63.51 38.05L63.12 37.67L57.38 35.75L56.8 35.75C52.66 38.74 50.37 40.4 49.91 40.73C49.74 40.87 49.66 41.09 49.71 41.31C49.97 45.67 51.36 49.9 53.74 53.57C54.39 53.57 57.64 53.57 63.51 53.57C65.58 50.69 66.72 49.1 66.95 48.78C67.06 48.6 67.06 48.38 66.95 48.2C66.95 48.23 66.95 48.29 66.95 48.39Z" id="iq1vFtXUl"></path><radialGradient id="gradientfrhJILLDR" gradientUnits="userSpaceOnUse" cx="76.15" cy="36.52" dx="75" dy="114.49" r="77.98"><stop style="stop-color: #ffffff;stop-opacity: 1" offset="0%"></stop><stop style="stop-color: #ffffff;stop-opacity: 1" offset="19%"></stop><stop style="stop-color: #f6f6f6;stop-opacity: 1" offset="21%"></stop><stop style="stop-color: #dddddd;stop-opacity: 1" offset="24%"></stop><stop style="stop-color: #b6b6b5;stop-opacity: 1" offset="27%"></stop><stop style="stop-color: #7f7f7e;stop-opacity: 1" offset="31%"></stop><stop style="stop-color: #595958;stop-opacity: 1" offset="33%"></stop><stop style="stop-color: #666665;stop-opacity: 1" offset="36%"></stop><stop style="stop-color: #878787;stop-opacity: 1" offset="41%"></stop><stop style="stop-color: #bebebe;stop-opacity: 1" offset="47%"></stop><stop style="stop-color: #ffffff;stop-opacity: 1" offset="53%"></stop></radialGradient><path d="M75 31.15L72.7 35.94L72.32 36.33L67.15 37.09C69.44 39.28 70.72 40.49 70.98 40.73C71.15 40.87 71.22 41.09 71.17 41.31C71.09 41.65 70.71 43.38 70.02 46.48L74.81 43.99L75.38 43.99L79.98 46.48C79.41 43.38 79.09 41.65 79.02 41.31C78.97 41.09 79.05 40.87 79.21 40.73C79.47 40.49 80.75 39.28 83.05 37.09L77.87 36.33L77.49 35.94L75 31.15Z" id="a85pcUgqXi"></path><path d="M75.19 43.99L79.98 46.48C79.41 43.38 79.09 41.65 79.02 41.31C75.76 40.98 72.85 39.14 71.17 36.33C70.88 36.36 69.41 36.56 66.76 36.9C69.06 39.08 70.34 40.3 70.59 40.54C70.76 40.68 70.84 40.9 70.79 41.12C70.73 41.47 70.48 43.26 70.02 46.48L74.81 43.99L75.19 43.99Z" id="cexxyrylF"></path><path d="M72.2 70.13C70.63 71.7 70.63 74.25 72.2 75.82C73.77 77.39 76.32 77.39 77.89 75.82C79.46 74.25 79.46 71.7 77.89 70.13C76.32 68.56 73.77 68.56 72.2 70.13Z" id="f9GCuMTyrH"></path><radialGradient id="gradientabrLglfv" gradientUnits="userSpaceOnUse" cx="75.45" cy="71.21" dx="113.51" dy="-20.49" r="99.29"><stop style="stop-color: #c1c2c4;stop-opacity: 1" offset="0%"></stop><stop style="stop-color: #c1c2c4;stop-opacity: 1" offset="19%"></stop><stop style="stop-color: #b8b9bb;stop-opacity: 1" offset="21%"></stop><stop style="stop-color: #a0a0a2;stop-opacity: 1" offset="25%"></stop><stop style="stop-color: #78787a;stop-opacity: 1" offset="28.999999999999996%"></stop><stop style="stop-color: #49494b;stop-opacity: 1" offset="33%"></stop><stop style="stop-color: #565658;stop-opacity: 1" offset="37%"></stop><stop style="stop-color: #77787a;stop-opacity: 1" offset="43%"></stop><stop style="stop-color: #adaeb0;stop-opacity: 1" offset="51%"></stop><stop style="stop-color: #c1c2c4;stop-opacity: 1" offset="53%"></stop></radialGradient></defs><g><g><g><g><use xlink:href="#a6alvqb9kf" opacity="1" fill="url(#gradientcycgjB6X4)"></use><g><use xlink:href="#a6alvqb9kf" opacity="1" fill-opacity="0" stroke="#000000" stroke-width="1" stroke-opacity="0"></use></g></g><g><use xlink:href="#abDPAAWuf" opacity="1" fill="url(#gradientdgxylUZha)"></use><g><use xlink:href="#abDPAAWuf" opacity="1" fill-opacity="0" stroke="#000000" stroke-width="1" stroke-opacity="0"></use></g></g><g><use xlink:href="#hb0x1BkKfJ" opacity="1" fill="url(#gradienta6ovHqq5X)"></use><g><use xlink:href="#hb0x1BkKfJ" opacity="1" fill-opacity="0" stroke="#000000" stroke-width="1" stroke-opacity="0"></use></g></g><g><use xlink:href="#a4U0P2gfWX" opacity="1" fill="url(#gradientbsfHYf4w4)"></use><g><use xlink:href="#a4U0P2gfWX" opacity="1" fill-opacity="0" stroke="#000000" stroke-width="1" stroke-opacity="0"></use></g></g><g><use xlink:href="#a1Klrr4lW8" opacity="1" fill="url(#gradientb2Z93noSsx)"></use><g><use xlink:href="#a1Klrr4lW8" opacity="1" fill-opacity="0" stroke="#000000" stroke-width="1" stroke-opacity="0"></use></g></g><g><use xlink:href="#bPtoxwfp3" opacity="1" fill="url(#gradientfX2C0BYwW)"></use><g><use xlink:href="#bPtoxwfp3" opacity="1" fill-opacity="0" stroke="#000000" stroke-width="1" stroke-opacity="0"></use></g></g><g><use xlink:href="#bVu8ppl7f" opacity="1" fill="url(#gradientcg92MMDQs)"></use><g><use xlink:href="#bVu8ppl7f" opacity="1" fill-opacity="0" stroke="#000000" stroke-width="1" stroke-opacity="0"></use></g></g><g><use xlink:href="#e20gOnz0RN" opacity="1" fill="url(#gradientd3UVUi5uWS)"></use><g><use xlink:href="#e20gOnz0RN" opacity="1" fill-opacity="0" stroke="#000000" stroke-width="1" stroke-opacity="0"></use></g></g><g><use xlink:href="#g3sXb8bTBl" opacity="1" fill="url(#gradientb4zurteZ2x)"></use><g><use xlink:href="#g3sXb8bTBl" opacity="1" fill-opacity="0" stroke="#000000" stroke-width="1" stroke-opacity="0"></use></g></g><g><use xlink:href="#iq1vFtXUl" opacity="1" fill="url(#gradientfrhJILLDR)"></use><g><use xlink:href="#iq1vFtXUl" opacity="1" fill-opacity="0" stroke="#000000" stroke-width="1" stroke-opacity="0"></use></g></g><g><use xlink:href="#a85pcUgqXi" opacity="1" fill="#f4df98" fill-opacity="1"></use><g><use xlink:href="#a85pcUgqXi" opacity="1" fill-opacity="0" stroke="#000000" stroke-width="1" stroke-opacity="0"></use></g></g><g><use xlink:href="#cexxyrylF" opacity="1" fill="#c9933f" fill-opacity="1"></use><g><use xlink:href="#cexxyrylF" opacity="1" fill-opacity="0" stroke="#000000" stroke-width="1" stroke-opacity="0"></use></g></g><g><use xlink:href="#f9GCuMTyrH" opacity="1" fill="url(#gradientabrLglfv)"></use><g><use xlink:href="#f9GCuMTyrH" opacity="1" fill-opacity="0" stroke="#000000" stroke-width="1" stroke-opacity="0"></use></g></g></g></g></g></svg>