<?xml version="1.0" encoding="UTF-8" standalone="no"?>
<!DOCTYPE svg PUBLIC "-//W3C//DTD SVG 1.1//EN" "http://www.w3.org/Graphics/SVG/1.1/DTD/svg11.dtd">
<svg version="1.1" xmlns="http://www.w3.org/2000/svg" xmlns:xlink="http://www.w3.org/1999/xlink" preserveAspectRatio="xMidYMid meet" viewBox="0 0 150 150" width="150" height="150"><defs><path d="M75.4 122.26C75.39 122.26 75.32 122.26 75.2 122.26L74.8 121.86L74.8 121.86L74.4 122.26L73 122.26L74.2 121.26L74.6 120.66C74.84 120.66 74.97 120.66 75 120.66C75.2 121.26 75.6 121.46 75.4 121.66C75.38 121.86 75.38 122.06 75.4 122.26ZM65.79 150.3L66.39 149.5L66.99 149.5L66.99 148.5L66.99 148.5L67.79 146.5L67.79 146.5L67.79 145.3L67.99 145.3C69.07 144.93 69.67 144.73 69.79 144.69C71.98 143.71 73.33 141.48 73.2 139.09C73.2 138.78 73.2 137.24 73.2 134.48L73.6 134.08L74.2 134.08C74.08 133.96 74.01 133.89 74 133.88C71.96 133.43 70.34 131.89 69.79 129.87C69.79 129.85 69.79 129.71 69.79 129.47C68.59 129.47 67.92 129.47 67.79 129.47C67.48 128.5 67.48 127.45 67.79 126.47C67.92 126.47 68.59 126.47 69.79 126.47L69.79 125.67C69.91 125.67 69.98 125.67 69.99 125.67C70.52 124.24 71.6 123.08 73 122.46C73 122.46 73 122.26 73.2 122.06C73.22 122.04 73.36 121.9 73.6 121.66L74.2 121.06L74.2 121.06L74.2 120.46C74.32 120.46 74.39 120.46 74.4 120.46C74.6 120.06 74.6 119.86 74.6 119.26C74.59 119.26 74.52 119.26 74.4 119.26L74 119.86C74 119.86 74 119.86 74 119.86C74 120.06 74 120.26 73.8 120.06C73.6 119.86 73.8 119.66 73.8 119.26C73.83 119.21 73.96 118.94 74.2 118.46L74.8 118.06C74.92 118.06 74.99 118.06 75 118.06C75 117.86 75.2 117.66 75.4 117.66C75.54 117.74 75.62 117.9 75.6 118.06C75.69 118.06 76.16 118.06 77 118.06L75.6 118.46L75.6 118.46C75.6 118.7 75.6 118.83 75.6 118.86C75.47 119.1 75.4 119.38 75.4 119.66C75.4 119.69 75.4 119.82 75.4 120.06C75.64 120.66 75.77 121 75.8 121.06C75.8 121.26 75.8 121.66 75.8 121.86C75.82 121.86 75.98 121.86 76 121.86C77.94 122.24 79.54 123.61 80.21 125.47C80.22 125.47 80.29 125.47 80.41 125.47L80.41 126.27C81.61 126.27 82.28 126.27 82.41 126.27C82.72 127.25 82.72 128.3 82.41 129.27C82.28 129.27 81.61 129.27 80.41 129.27C80.41 129.27 80.41 129.27 80.41 129.27C79.86 131.29 78.24 132.83 76.2 133.28C76.19 133.28 76.12 133.28 76 133.28L76.6 133.48L77 133.88C77 136.52 77 137.99 77 138.29C76.87 140.68 78.22 142.91 80.41 143.89C80.53 143.93 81.13 144.13 82.21 144.49L82.41 144.49L82.41 145.3L82.41 145.3L83.21 147.3L83.21 147.3L83.21 148.3L83.61 148.3L84.21 149.1C86.86 149.1 88.32 149.1 88.62 149.1C80.41 123.07 82.61 19.33 82.61 0.5C82.1 0.54 79.57 0.74 75 1.1C70.43 1.46 67.9 1.66 67.39 1.7C67.59 20.53 69.59 124.47 61.38 150.3C61.97 150.3 63.44 150.3 65.79 150.3Z" id="a1p3aHf5Jv"></path><path d="M68.99 52.77C68.99 51.69 68.99 51.09 68.99 50.97C68.99 49.77 68.79 48.17 68.79 46.16C68.79 44.16 68.59 41.76 68.59 39.35C68.59 38.55 68.59 32.14 68.59 31.34C68.59 28.74 68.59 25.94 68.59 23.53C68.59 21.13 68.59 18.73 68.59 16.72C68.59 14.72 68.59 13.12 68.59 11.92C68.59 11.92 68.59 11.92 68.59 11.92C68.59 13.12 68.79 14.72 68.79 16.72C68.79 18.73 68.99 21.13 68.99 23.53C68.99 24.31 68.99 30.56 68.99 31.34C68.99 33.95 68.99 36.75 68.99 39.15C68.99 41.56 68.99 43.96 68.99 45.96C68.99 47.97 68.99 49.57 68.99 50.77C68.99 51.04 68.99 51.7 68.99 52.77Z" id="cdSPIP0EK"></path><path d="M63.18 148.9L63.78 146.1L64.39 142.89C64.75 140.49 64.95 139.15 64.99 138.89C65.19 137.48 65.39 135.68 65.59 134.08C65.65 133.54 66.13 129.21 66.19 128.67C66.39 126.87 66.59 124.87 66.59 122.87C66.59 120.86 66.79 118.86 66.99 116.86C67.19 114.85 67.59 108.85 67.59 105.04C67.63 104.36 67.83 100.96 68.19 94.83L68.59 84.81C68.59 86.5 68.59 87.43 68.59 87.62C68.59 89.42 68.59 91.82 68.59 94.83C68.59 97.83 68.39 101.44 68.19 105.04C67.99 108.65 67.79 112.85 67.59 116.86C67.55 117.46 67.23 122.26 67.19 122.87C66.99 124.87 66.79 126.87 66.59 128.67C66.39 130.48 66.19 132.28 65.99 134.08C65.79 135.88 65.59 137.48 65.39 138.89C65.19 140.29 64.99 141.69 64.59 142.89C64.55 143.11 64.35 144.17 63.99 146.1L63.38 148.1L63.18 148.9Z" id="cgFBmb9rZ"></path><path d="M81.41 84.81L81.81 94.83C82.17 100.96 82.37 104.36 82.41 105.04C82.61 108.85 82.81 112.85 83.01 116.86C83.21 120.86 83.21 120.86 83.41 122.87C83.61 124.87 83.81 126.87 83.81 128.67C83.87 129.21 84.35 133.54 84.41 134.08C84.61 135.88 84.81 137.48 85.01 138.89C85.05 139.15 85.25 140.49 85.61 142.89L86.22 146.1L86.82 148.9L86.82 148.3L86.22 146.3C85.85 144.37 85.65 143.31 85.61 143.09C85.41 141.89 85.01 140.49 84.81 139.09C84.61 137.68 84.41 135.88 84.21 134.28C84.01 132.68 83.81 130.68 83.61 128.87C83.41 127.07 83.21 125.07 83.01 123.07C82.97 122.46 82.65 117.66 82.61 117.06C82.41 113.05 82.21 109.05 82.01 105.24C81.81 101.44 81.81 98.03 81.61 95.03C81.41 92.02 81.61 89.42 81.61 87.82C81.58 87.42 81.52 86.42 81.41 84.81Z" id="g5u0F5r8ZI"></path><path d="M81.21 9.71C81.21 10.8 81.21 11.4 81.21 11.52C81.21 12.72 81.21 14.32 81.21 16.32C81.21 18.33 81.21 20.73 81.21 23.13C81.21 24.73 81.21 37.55 81.21 39.15C81.21 41.76 81.01 43.96 81.01 45.96C81.01 47.97 80.81 49.57 80.81 50.77C80.81 50.77 80.81 50.77 80.81 50.77C80.81 49.57 80.81 47.97 80.81 45.96C80.81 43.96 80.81 41.56 80.81 39.15C80.81 36.75 80.81 33.95 80.81 31.34C80.81 30.54 80.81 24.13 80.81 23.33C80.81 20.73 81.01 18.53 81.01 16.52C81.01 14.52 81.21 12.92 81.21 11.72C81.21 11.45 81.21 10.78 81.21 9.71Z" id="a182cIiYLG"></path><path d="M39.95 150.3C48.12 150.3 52.66 150.3 53.57 150.3C60.32 127.96 63.7 104.74 63.58 81.41C63.79 56.03 59.79 30.79 51.77 6.71C51.75 6.71 51.59 6.71 51.57 6.71C48.52 8.29 45.63 10.17 42.96 12.32C42.96 12.32 42.96 12.32 42.96 12.32C51.49 33.09 55.78 55.35 55.57 77.81C55.83 102.79 50.43 127.51 39.75 150.1C39.78 150.13 39.85 150.19 39.95 150.3Z" id="a553faKGGT"></path><path d="M43.16 12.32C43.18 12.4 43.32 12.8 43.56 13.52C43.56 13.52 43.56 13.52 43.56 13.52C51.78 33.95 55.93 55.79 55.77 77.81C56.06 102.25 50.93 126.46 40.75 148.7C41.94 148.7 51.39 148.7 52.57 148.7C59.09 127.01 62.33 104.46 62.18 81.81C61.98 55.17 58.18 29.54 50.97 8.51C48.13 9.22 45.46 10.51 43.16 12.32Z" id="b1nXbGKnr5"></path><path d="M53.57 150.3L52.37 148.7L52.37 148.7L53.57 144.49C54.29 141.97 54.69 140.57 54.77 140.29C55.44 137.35 56.11 134.48 56.78 131.68L57.18 129.47L57.58 127.27C58.06 124.63 58.32 123.16 58.38 122.87C58.78 119.86 59.38 117.06 59.78 114.05C60.18 111.05 61.18 102.24 61.38 96.43C61.58 90.62 61.78 84.61 61.78 78.61C61.78 77.2 61.78 75.6 61.78 74.2C61.78 73.74 61.78 70.05 61.78 69.59C61.58 66.59 61.38 63.59 61.18 60.78C60.98 57.98 60.58 54.97 60.38 51.97C60.34 51.68 60.14 50.21 59.78 47.56L58.98 43.16L58.38 38.75L57.58 34.35L56.78 29.94L55.77 25.54L54.77 21.13L53.57 17.12L52.37 12.92L50.97 8.51L50.97 8.51L51.77 6.71L50.97 8.51L50.97 8.51L52.37 12.72L53.77 16.92L54.97 21.13L56.17 25.54L57.18 29.94L58.18 34.35L58.98 38.75L59.78 43.16L60.38 47.56C60.74 50.21 60.94 51.68 60.98 51.97C61.38 54.97 61.58 57.78 61.78 60.78C61.98 63.79 62.18 66.79 62.38 69.59C62.38 70.03 62.38 73.56 62.38 74C62.38 75.4 62.38 77 62.38 78.41C62.38 87.22 62.02 94.45 61.98 96.23C61.58 102.24 60.98 108.05 60.18 113.85C59.38 119.66 59.38 119.66 58.78 122.66C58.72 122.96 58.46 124.43 57.98 127.07L57.58 129.27L56.98 131.48L55.97 135.88L54.97 140.09L53.77 144.29L52.57 148.5L53.57 150.3Z" id="b2h8zIg2pV"></path><path d="M15.92 150.3C25.05 150.3 30.13 150.3 31.14 150.3C43.96 131.48 51.77 106.24 51.77 78.61C51.97 57.4 47.09 36.46 37.55 17.52C37.53 17.52 37.37 17.52 37.35 17.52C35.68 19.28 34.15 21.16 32.74 23.13C32.71 23.19 32.71 23.27 32.74 23.33C41.9 39.37 46.67 57.54 46.56 76C46.56 106.04 36.15 137.08 15.72 150.1C15.75 150.13 15.81 150.19 15.92 150.3Z" id="a1GBj1UmEh"></path><path d="M36.95 19.93C35.41 20.89 34 22.03 32.74 23.33C32.8 23.43 33.28 24.23 33.34 24.33C42.22 40.17 46.84 58.04 46.76 76.2C46.76 105.04 37.15 135.08 18.12 148.7C19.34 148.7 29.12 148.7 30.34 148.7C42.76 130.48 50.17 106.24 50.17 79.41C50.17 57.38 45.56 36.55 36.95 19.93C36.95 19.93 36.95 19.93 36.95 19.93Z" id="ex6Ua4o6m"></path><path d="M40.55 27.54C40.61 27.67 40.87 28.34 41.35 29.54L42.16 31.54L42.96 33.55C43.32 34.75 43.52 35.42 43.56 35.55C44.56 38.15 45.16 40.96 45.96 43.56C46.03 43.83 46.36 45.16 46.96 47.56L47.76 51.77C48.24 54.29 48.51 55.7 48.56 55.98C48.76 57.38 48.96 58.78 49.17 60.18C49.37 61.58 49.77 65.79 49.97 68.59C50.17 71.4 50.37 74.2 50.37 77C50.37 79.81 50.37 82.61 50.37 85.42C50.12 91.05 49.51 96.67 48.56 102.24C47.67 107.79 46.39 113.28 44.76 118.66C43.13 124 41.12 129.22 38.75 134.28C36.35 139.37 33.53 144.26 30.34 148.9C30.39 149.01 30.66 149.54 31.14 150.5L30.34 148.9C30.34 148.9 30.34 148.9 30.34 148.9C33.46 144.25 36.21 139.36 38.55 134.28C40.85 129.22 42.79 124 44.36 118.66C45.98 113.27 47.25 107.79 48.16 102.24C48.76 98.03 49.06 94.67 49.17 93.83C49.37 91.02 49.57 88.22 49.77 85.42C49.97 82.61 49.97 79.81 49.97 77C49.97 74.2 49.77 71.4 49.57 68.59C49.37 65.79 49.17 62.99 48.76 60.18C48.36 57.38 48.36 57.38 48.16 55.98C48.12 55.7 47.92 54.29 47.56 51.77L46.76 47.56C46.16 45.16 45.83 43.83 45.76 43.56C45.16 40.76 44.36 38.15 43.36 35.55C43.32 35.42 43.12 34.75 42.76 33.55L41.96 31.54L41.15 29.54C40.67 28.34 40.41 27.67 40.35 27.54C39.35 24.93 38.15 22.53 36.95 19.93C38.15 22.33 39.55 24.93 40.55 27.54Z" id="copwkm0Fb"></path><path d="M68.59 2.91C68.59 4.71 68.59 7.11 68.59 9.91C68.59 10.38 68.59 12.72 68.59 16.92L80.81 16.92C80.81 12.6 80.81 10.19 80.81 9.71C80.81 6.91 80.81 4.51 80.81 2.7C80.42 2.69 78.48 2.62 75 2.5C71.58 2.72 69.45 2.85 68.59 2.91Z" id="e3LH7nOcwh"></path><path d="M63.18 148.9C69.99 123.07 69.19 41.16 68.79 9.91C68.79 7.11 68.79 4.71 68.79 2.91C69.21 2.88 71.27 2.74 75 2.5C78.85 2.74 80.98 2.88 81.41 2.91C81.41 4.71 81.41 7.11 81.41 9.91C81.01 41.16 80.21 123.07 87.02 148.9C86.75 148.87 85.41 148.74 83.01 148.5L83.01 148.1L83.01 148.1L82.21 146.1L82.21 146.1L82.21 145.3L82.01 145.3C80.93 144.93 80.33 144.73 80.21 144.69C78.02 143.71 76.67 141.48 76.8 139.09C76.8 138.78 76.8 137.24 76.8 134.48L76.4 134.08L75.8 134.08C75.92 133.96 75.99 133.89 76 133.88C78.04 133.43 79.66 131.89 80.21 129.87C80.21 129.85 80.21 129.71 80.21 129.47C81.41 129.47 82.08 129.47 82.21 129.47C82.52 128.5 82.52 127.45 82.21 126.47C82.08 126.47 81.41 126.47 80.21 126.47L80.21 125.67C80.09 125.67 80.02 125.67 80.01 125.67C79.34 123.81 77.74 122.44 75.8 122.06C75.78 122.06 75.62 122.06 75.6 122.06C75.6 121.86 75.6 121.46 75.6 121.26C75.57 121.2 75.44 120.86 75.2 120.26C75.2 120.02 75.2 119.89 75.2 119.86C75.2 119.58 75.26 119.31 75.4 119.06C75.4 119.07 75.4 119.14 75.4 119.26L75.4 119.26L76.8 118.86C75.96 118.86 75.49 118.86 75.4 118.86C75.42 118.7 75.34 118.54 75.2 118.46C75 118.46 74.8 118.66 74.8 118.86C74.79 118.86 74.72 118.86 74.6 118.86L74 119.26C73.76 119.74 73.62 120.01 73.6 120.06C73.4 120.46 73.4 120.86 73.6 120.86C73.8 120.86 73.8 120.86 73.8 120.66C73.8 120.66 73.8 120.66 73.8 120.66L74.2 120.06C74.32 120.06 74.39 120.06 74.4 120.06C74.4 120.66 74.6 120.86 74.2 121.26C74.19 121.26 74.12 121.26 74 121.26L74 121.86L74 121.86L73.4 122.46C73.16 122.7 73.02 122.84 73 122.87C72.8 123.07 72.8 123.27 72.8 123.27C71.4 123.88 70.32 125.04 69.79 126.47C69.78 126.47 69.71 126.47 69.59 126.47L69.59 127.27C68.39 127.27 67.72 127.27 67.59 127.27C67.28 128.25 67.28 129.3 67.59 130.28C67.72 130.28 68.39 130.28 69.59 130.28C69.59 129.67 69.59 129.34 69.59 129.27C70.14 131.29 71.76 132.83 73.8 133.28C73.81 133.28 73.88 133.28 74 133.28L73.4 133.48L73 133.88C73 136.52 73 137.99 73 138.29C73.13 140.68 71.78 142.91 69.59 143.89C69.47 143.93 68.87 144.13 67.79 144.49L67.59 144.49L67.59 145.3L67.59 145.3L66.79 147.3L66.79 147.3L66.79 147.7C64.87 148.34 63.66 148.74 63.18 148.9ZM74.8 121.06L74.4 121.66L73.2 122.66L74.6 122.66L75 122.26L75 122.26L75.4 122.66C75.52 122.66 75.59 122.66 75.6 122.66C75.58 122.47 75.58 122.26 75.6 122.06C75.6 121.46 75.2 121.26 75 121.06C74.97 121.06 74.91 121.06 74.8 121.06Z" id="a1C2oClMh8"></path><path d="M110.05 150.3C101.76 150.3 97.15 150.3 96.23 150.3C89.48 127.96 86.1 104.74 86.22 81.41C86.08 56.02 90.14 30.78 98.23 6.71C98.25 6.71 98.41 6.71 98.43 6.71C101.48 8.29 104.37 10.17 107.04 12.32C107.04 12.32 107.04 12.32 107.04 12.32C98.51 33.09 94.22 55.35 94.43 77.81C94.17 102.79 99.57 127.51 110.25 150.1C110.22 150.13 110.15 150.19 110.05 150.3Z" id="a48bRHt2bF"></path><path d="M106.84 12.32C106.82 12.4 106.68 12.8 106.44 13.52C106.44 13.52 106.44 13.52 106.44 13.52C98.22 33.95 94.07 55.79 94.23 77.81C93.94 102.25 99.07 126.46 109.25 148.7C108.08 148.7 98.79 148.7 97.63 148.7C91.11 127.01 87.87 104.46 88.02 81.81C88.02 55.17 91.82 29.54 99.03 8.51C101.87 9.22 104.54 10.51 106.84 12.32Z" id="a1SaFcWIn"></path><path d="M96.43 150.3L97.63 148.7L97.63 148.7L96.43 144.49C95.71 141.97 95.31 140.57 95.23 140.29C94.56 137.35 93.89 134.48 93.22 131.68L92.82 129.27L92.42 127.07C91.94 124.43 91.68 122.96 91.62 122.66C91.22 119.66 90.62 116.86 90.22 113.85C89.82 110.85 88.82 102.04 88.62 96.23C88.42 90.42 88.22 84.41 88.22 78.41C88.22 77 88.22 75.4 88.22 74C88.22 73.56 88.22 70.03 88.22 69.59C88.42 66.59 88.62 63.59 88.82 60.78C89.02 57.98 89.42 54.97 89.62 51.97C89.66 51.68 89.86 50.21 90.22 47.56L91.02 43.16L91.62 38.75L92.42 34.35L93.22 29.94L94.23 25.54L95.23 21.13L96.43 17.12L97.63 12.92L99.03 8.51L99.03 8.51L98.23 6.71L99.03 8.51L99.03 8.51L97.63 12.72L96.23 16.92L95.03 21.33L93.83 25.74L93.02 29.94L92.02 34.35L91.22 38.75L90.42 43.16L89.82 47.56C89.46 50.21 89.26 51.68 89.22 51.97C88.82 54.97 88.62 57.78 88.42 60.78C88.22 63.79 88.02 66.79 87.82 69.59C87.82 70.03 87.82 73.56 87.82 74C87.82 75.4 87.82 77 87.82 78.41C87.82 87.22 88.18 94.45 88.22 96.23C88.62 102.24 89.22 108.05 90.02 113.85C90.82 119.66 90.82 119.66 91.42 122.66C91.48 122.96 91.74 124.43 92.22 127.07L92.62 129.27L93.02 131.48L94.03 135.88L95.23 140.09L96.43 144.29L97.63 148.5L96.43 150.3Z" id="cCnKyLnth"></path><path d="M134.08 150.3C124.95 150.3 119.87 150.3 118.86 150.3C106.04 131.48 98.23 106.24 98.23 78.61C98.03 57.4 102.91 36.46 112.45 17.52C112.47 17.52 112.63 17.52 112.65 17.52C114.32 19.28 115.85 21.16 117.26 23.13C117.29 23.19 117.29 23.27 117.26 23.33C108.1 39.37 103.33 57.54 103.44 76C103.44 106.04 113.85 137.08 134.28 150.1C134.25 150.13 134.19 150.19 134.08 150.3Z" id="a1SB5LtBKH"></path><path d="M113.05 19.93C114.59 20.89 116 22.03 117.26 23.33C117.2 23.43 116.72 24.23 116.66 24.33C107.78 40.17 103.16 58.04 103.24 76.2C103.24 105.04 112.85 135.08 131.88 148.7C130.66 148.7 120.88 148.7 119.66 148.7C107.24 130.48 99.83 106.24 99.83 79.41C99.83 57.38 104.44 36.55 113.05 19.93C113.05 19.93 113.05 19.93 113.05 19.93Z" id="i1vySK44bh"></path><path d="M109.45 27.54C109.39 27.67 109.13 28.34 108.65 29.54L107.84 31.54L107.04 33.55C106.68 34.75 106.48 35.42 106.44 35.55C105.44 38.15 104.84 40.96 104.04 43.56C103.97 43.83 103.64 45.16 103.04 47.56L102.24 51.77C101.76 54.29 101.49 55.7 101.44 55.98C101.24 57.38 101.04 58.78 100.83 60.18C100.63 61.58 100.23 65.79 100.03 68.59C99.83 71.4 99.63 74.2 99.63 77C99.63 79.81 99.63 82.61 99.63 85.42C99.88 91.05 100.49 96.67 101.44 102.24C102.33 107.79 103.61 113.28 105.24 118.66C106.87 124 108.88 129.22 111.25 134.28C113.65 139.37 116.47 144.26 119.66 148.9C119.61 149.01 119.34 149.54 118.86 150.5L119.66 148.9C119.66 148.9 119.66 148.9 119.66 148.9C116.54 144.25 113.79 139.36 111.45 134.28C109.15 129.22 107.21 124 105.64 118.66C104.02 113.27 102.75 107.79 101.84 102.24C101.24 98.03 100.93 94.67 100.83 93.83C100.63 91.02 100.43 88.22 100.23 85.42C100.03 82.61 100.03 79.81 100.03 77C100.03 74.2 100.23 71.4 100.43 68.59C100.63 65.79 100.83 62.99 101.24 60.18C101.64 57.38 101.64 57.38 101.84 55.98C101.88 55.7 102.08 54.29 102.44 51.77L103.24 47.56C103.84 45.16 104.17 43.83 104.24 43.56C104.84 40.76 105.64 38.15 106.64 35.55C106.68 35.42 106.88 34.75 107.24 33.55L108.04 31.54L108.85 29.54C109.33 28.34 109.59 27.67 109.65 27.54C110.65 24.93 111.85 22.53 113.05 19.93C111.85 22.33 110.45 24.93 109.45 27.54Z" id="a3h2E1bBB"></path><path d="M74.2 133.88L73.8 133.88L72.4 133.28L71.19 132.48L70.19 131.28L69.79 130.68L69.79 129.27L69.79 129.27L69.79 128.87C68.59 128.87 67.92 128.87 67.79 128.87C67.69 128.55 67.63 128.21 67.59 127.87C67.57 127.54 67.57 127.2 67.59 126.87C67.72 126.87 68.39 126.87 69.59 126.87L69.59 126.07C69.71 126.07 69.78 126.07 69.79 126.07C70.32 124.64 71.4 123.48 72.8 122.87C72.8 122.87 72.8 122.87 72.8 122.87C72.76 122.8 72.76 122.73 72.8 122.66C72.8 122.66 72.8 122.66 72.8 122.66C72.76 122.73 72.76 122.8 72.8 122.87C71.4 123.48 70.32 124.64 69.79 126.07C69.78 126.07 69.71 126.07 69.59 126.07L69.59 126.87C68.15 126.87 67.35 126.87 67.19 126.87C67.16 127.27 67.16 127.67 67.19 128.07C67.22 128.48 67.28 128.88 67.39 129.27C67.39 129.3 67.39 129.43 67.39 129.67L69.39 129.67L69.39 130.88L69.79 131.68L70.79 132.88L72 133.88L73.4 134.48C73.4 134.48 73.4 134.48 73.4 134.48C73.39 134.55 73.39 134.61 73.4 134.68C73.37 134.68 73.24 134.68 73 134.68C73 136.72 73 137.86 73 138.09C73.03 138.96 72.96 139.83 72.8 140.69C72.64 141.55 72.3 142.37 71.8 143.09C71.29 143.8 70.59 144.35 69.79 144.69C69.71 144.72 69.31 144.85 68.59 145.09C68.11 145.09 67.84 145.09 67.79 145.09C67.78 145.16 67.78 145.23 67.79 145.3C67.79 145.34 67.79 145.54 67.79 145.9L67.59 145.9C67.59 147.46 67.59 148.33 67.59 148.5C67.59 148.7 67.59 148.7 67.59 148.9C67.54 148.9 67.27 148.9 66.79 148.9L66.39 149.5L66.79 149.1L67.39 148.7C67.15 148.7 67.02 148.7 66.99 148.7C66.99 148.5 66.99 148.5 66.99 148.3C66.99 148.26 66.99 148.06 66.99 147.7L66.99 147.7L66.99 145.3L67.59 145.3C68.31 145.05 68.71 144.92 68.79 144.89C69.66 144.57 70.42 144.02 70.99 143.29C71.57 142.59 71.98 141.77 72.2 140.89C72.36 140.03 72.43 139.16 72.4 138.29C72.4 138.03 72.4 136.76 72.4 134.48L73.4 134.48L74.2 133.88Z" id="c4Xz3QfeC4"></path><path d="M83.81 149.9C83.33 149.9 83.06 149.9 83.01 149.9C83.01 149.7 83.01 149.7 83.01 149.5C83.01 149.16 83.01 146.44 83.01 146.1C83.01 146.1 83.01 145.9 83.01 145.7C83.01 145.66 83.01 145.34 83.01 145.3C83.02 145.23 83.02 145.16 83.01 145.09C82.96 145.09 82.69 145.09 82.21 145.09L81.01 144.69L79.81 144.09C79.21 143.49 78.87 143.16 78.81 143.09C78.29 142.38 77.95 141.56 77.8 140.69C77.64 139.83 77.57 138.96 77.6 138.09C77.6 137.83 77.6 136.56 77.6 134.28L77.6 134.28L78.4 133.88L79.61 132.88L80.61 131.68L81.01 130.88L81.01 129.67L83.01 129.67C83.01 129.43 83.01 129.3 83.01 129.27C83.05 128.87 83.05 128.47 83.01 128.07C82.98 127.67 82.92 127.26 82.81 126.87C82.81 126.84 82.81 126.71 82.81 126.47L80.81 126.47L80.81 125.67L80.61 125.67L80.01 124.47C79.41 123.87 79.07 123.53 79.01 123.47C78.26 122.85 77.36 122.43 76.4 122.26C76.39 122.26 76.32 122.26 76.2 122.26L76.2 122.26C76.32 122.26 76.39 122.26 76.4 122.26C77.36 122.43 78.26 122.85 79.01 123.47C79.07 123.53 79.41 123.87 80.01 124.47L80.61 125.67L80.81 125.67L80.81 126.47C82.01 126.47 82.68 126.47 82.81 126.47C82.85 126.87 82.85 127.27 82.81 127.67C82.85 128.07 82.85 128.47 82.81 128.87C82.68 128.87 82.01 128.87 80.81 128.87L80.81 129.27L80.81 129.27L80.81 130.07L80.41 130.68L79.41 131.88L78.2 132.68L76.8 133.28L76.6 133.28L76.6 133.68L77.4 133.68C77.4 135.72 77.4 136.86 77.4 137.08C77.37 137.96 77.44 138.83 77.6 139.69C77.82 140.57 78.23 141.39 78.81 142.09C78.87 142.16 79.21 142.49 79.81 143.09L81.01 143.69L82.21 144.09L82.81 144.09C82.81 144.33 82.81 144.47 82.81 144.49C82.8 144.63 82.8 144.76 82.81 144.89C82.81 145.17 82.81 147.42 82.81 147.7C82.81 147.9 82.81 147.9 82.81 148.1C82.82 148.1 82.89 148.1 83.01 148.1L83.61 148.5L84.01 148.9L83.81 149.9Z" id="a45OEZqJ5"></path></defs><g><g><g><g><use xlink:href="#a1p3aHf5Jv" opacity="1" fill="#000000" fill-opacity="1"></use><g><use xlink:href="#a1p3aHf5Jv" opacity="1" fill-opacity="0" stroke="#000000" stroke-width="1" stroke-opacity="0"></use></g></g><g><use xlink:href="#cdSPIP0EK" opacity="1" fill="#000000" fill-opacity="1"></use><g><use xlink:href="#cdSPIP0EK" opacity="1" fill-opacity="0" stroke="#000000" stroke-width="1" stroke-opacity="0"></use></g></g><g><use xlink:href="#cgFBmb9rZ" opacity="1" fill="#000000" fill-opacity="1"></use><g><use xlink:href="#cgFBmb9rZ" opacity="1" fill-opacity="0" stroke="#000000" stroke-width="1" stroke-opacity="0"></use></g></g><g><use xlink:href="#g5u0F5r8ZI" opacity="1" fill="#000000" fill-opacity="1"></use><g><use xlink:href="#g5u0F5r8ZI" opacity="1" fill-opacity="0" stroke="#000000" stroke-width="1" stroke-opacity="0"></use></g></g><g><use xlink:href="#a182cIiYLG" opacity="1" fill="#000000" fill-opacity="1"></use><g><use xlink:href="#a182cIiYLG" opacity="1" fill-opacity="0" stroke="#000000" stroke-width="1" stroke-opacity="0"></use></g></g><g><use xlink:href="#a553faKGGT" opacity="1" fill="#000000" fill-opacity="1"></use><g><use xlink:href="#a553faKGGT" opacity="1" fill-opacity="0" stroke="#000000" stroke-width="1" stroke-opacity="0"></use></g></g><g><use xlink:href="#b1nXbGKnr5" opacity="1" fill="#000000" fill-opacity="1"></use><g><use xlink:href="#b1nXbGKnr5" opacity="1" fill-opacity="0" stroke="#000000" stroke-width="1" stroke-opacity="0"></use></g></g><g><use xlink:href="#b2h8zIg2pV" opacity="1" fill="#000000" fill-opacity="1"></use><g><use xlink:href="#b2h8zIg2pV" opacity="1" fill-opacity="0" stroke="#000000" stroke-width="1" stroke-opacity="0"></use></g></g><g><use xlink:href="#a1GBj1UmEh" opacity="1" fill="#000000" fill-opacity="1"></use><g><use xlink:href="#a1GBj1UmEh" opacity="1" fill-opacity="0" stroke="#000000" stroke-width="1" stroke-opacity="0"></use></g></g><g><use xlink:href="#ex6Ua4o6m" opacity="1" fill="#000000" fill-opacity="1"></use><g><use xlink:href="#ex6Ua4o6m" opacity="1" fill-opacity="0" stroke="#000000" stroke-width="1" stroke-opacity="0"></use></g></g><g><use xlink:href="#copwkm0Fb" opacity="1" fill="#000000" fill-opacity="1"></use><g><use xlink:href="#copwkm0Fb" opacity="1" fill-opacity="0" stroke="#000000" stroke-width="1" stroke-opacity="0"></use></g></g><g><use xlink:href="#e3LH7nOcwh" opacity="1" fill="#000000" fill-opacity="1"></use><g><use xlink:href="#e3LH7nOcwh" opacity="1" fill-opacity="0" stroke="#000000" stroke-width="1" stroke-opacity="0"></use></g></g><g><use xlink:href="#a1C2oClMh8" opacity="1" fill="#000000" fill-opacity="1"></use><g><use xlink:href="#a1C2oClMh8" opacity="1" fill-opacity="0" stroke="#000000" stroke-width="1" stroke-opacity="0"></use></g></g><g><use xlink:href="#a48bRHt2bF" opacity="1" fill="#000000" fill-opacity="1"></use><g><use xlink:href="#a48bRHt2bF" opacity="1" fill-opacity="0" stroke="#000000" stroke-width="1" stroke-opacity="0"></use></g></g><g><use xlink:href="#a1SaFcWIn" opacity="1" fill="#000000" fill-opacity="1"></use><g><use xlink:href="#a1SaFcWIn" opacity="1" fill-opacity="0" stroke="#000000" stroke-width="1" stroke-opacity="0"></use></g></g><g><use xlink:href="#cCnKyLnth" opacity="1" fill="#000000" fill-opacity="1"></use><g><use xlink:href="#cCnKyLnth" opacity="1" fill-opacity="0" stroke="#000000" stroke-width="1" stroke-opacity="0"></use></g></g><g><use xlink:href="#a1SB5LtBKH" opacity="1" fill="#000000" fill-opacity="1"></use><g><use xlink:href="#a1SB5LtBKH" opacity="1" fill-opacity="0" stroke="#000000" stroke-width="1" stroke-opacity="0"></use></g></g><g><use xlink:href="#i1vySK44bh" opacity="1" fill="#000000" fill-opacity="1"></use><g><use xlink:href="#i1vySK44bh" opacity="1" fill-opacity="0" stroke="#000000" stroke-width="1" stroke-opacity="0"></use></g></g><g><use xlink:href="#a3h2E1bBB" opacity="1" fill="#000000" fill-opacity="1"></use><g><use xlink:href="#a3h2E1bBB" opacity="1" fill-opacity="0" stroke="#000000" stroke-width="1" stroke-opacity="0"></use></g></g><g><use xlink:href="#c4Xz3QfeC4" opacity="1" fill="#000000" fill-opacity="1"></use><g><use xlink:href="#c4Xz3QfeC4" opacity="1" fill-opacity="0" stroke="#000000" stroke-width="1" stroke-opacity="0"></use></g></g><g><use xlink:href="#a45OEZqJ5" opacity="1" fill="#000000" fill-opacity="1"></use><g><use xlink:href="#a45OEZqJ5" opacity="1" fill-opacity="0" stroke="#000000" stroke-width="1" stroke-opacity="0"></use></g></g></g></g></g></svg>